<?xml version="1.0" standalone="no"?><!DOCTYPE svg PUBLIC "-//W3C//DTD SVG 1.1//EN" "http://www.w3.org/Graphics/SVG/1.1/DTD/svg11.dtd"><svg t="1739777215066" class="icon" viewBox="0 0 1024 1024" version="1.1" xmlns="http://www.w3.org/2000/svg" p-id="11006" xmlns:xlink="http://www.w3.org/1999/xlink" width="32" height="32"><path d="M512 512m-388 0a388 388 0 1 0 776 0 388 388 0 1 0-776 0Z" fill="#FF7B15" p-id="11007"></path><path d="M413.729 451.511h-84.07c-15.4 0-28-12.6-28-28s12.6-28 28-28h84.07c15.4 0 28 12.6 28 28s-12.6 28-28 28zM694.341 451.511h-84.07c-15.4 0-28-12.6-28-28s12.6-28 28-28h84.07c15.4 0 28 12.6 28 28s-12.6 28-28 28z" fill="#231815" p-id="11008"></path><path d="M400.162 637.011a24.896 24.896 0 0 1-15.746-5.595c-10.718-8.704-12.35-24.449-3.646-35.167 32.652-40.204 81.055-63.263 132.799-63.263 49.543 0 96.607 21.465 129.125 58.892 9.056 10.422 7.948 26.212-2.475 35.269-10.423 9.057-26.213 7.948-35.269-2.475-23.018-26.492-56.325-41.686-91.382-41.686-36.615 0-70.872 16.323-93.986 44.784-4.94 6.084-12.149 9.241-19.42 9.241z" fill="#FFFFFF" p-id="11009"></path></svg>