<?xml version="1.0" standalone="no"?><!DOCTYPE svg PUBLIC "-//W3C//DTD SVG 1.1//EN" "http://www.w3.org/Graphics/SVG/1.1/DTD/svg11.dtd"><svg t="1739519167527" class="icon" viewBox="0 0 1024 1024" version="1.1" xmlns="http://www.w3.org/2000/svg" p-id="15930" xmlns:xlink="http://www.w3.org/1999/xlink" width="128" height="128"><path d="M512 0C229.627709 0 0 229.627709 0 512S229.627709 1024 512 1024 1024 794.372291 1024 512 794.372291 0 512 0z m0 996.655196c-267.269721 0-484.655196-217.385475-484.655196-484.655196s217.385475-484.655196 484.655196-484.655196 484.655196 217.385475 484.655196 484.655196-217.385475 484.655196-484.655196 484.655196z m96.564916-546.667263h225.737654c15.10257 0 27.344804-12.242235 27.344804-27.344805 0-100.569385-153.42838-258.574302-252.624804-260.061675-7.322458 0-14.416089 2.745922-19.564693 7.894525-5.263017 5.148603-8.123352 12.127821-8.123352 19.450279v232.831285c-0.114413 14.988156 12.127821 27.230391 27.230391 27.230391z m27.230391-227.110615c62.355307 22.882682 145.305028 108.807151 166.128268 172.421006H635.795307V222.877318z m198.392849 261.777878H541.747486V189.811844c0-14.644916-12.585475-26.772737-27.230391-27.344805h-2.402682C319.213408 162.467039 162.467039 319.213408 162.467039 512S319.213408 861.532961 512 861.532961 861.532961 704.786592 861.532961 512c0-15.10257-12.242235-27.344804-27.344805-27.344804zM512 806.957765c-162.581453 0-294.957765-132.261899-294.957765-294.957765 0-154.11486 118.875531-280.99933 270.015642-293.813631v293.813631c0 15.10257 12.242235 27.344804 27.344805 27.344804h291.296536c-13.844022 149.881564-140.270838 267.612961-293.699218 267.612961z" fill="#1A70CC" p-id="15931"></path></svg>