<?xml version="1.0" standalone="no"?><!DOCTYPE svg PUBLIC "-//W3C//DTD SVG 1.1//EN" "http://www.w3.org/Graphics/SVG/1.1/DTD/svg11.dtd"><svg t="1739775265372" class="icon" viewBox="0 0 1024 1024" version="1.1" xmlns="http://www.w3.org/2000/svg" p-id="9217" xmlns:xlink="http://www.w3.org/1999/xlink" width="32" height="32"><path d="M316.509091 800.581818H97.745455V93.090909h712.145454V335.127273c0 23.272727 13.963636 37.236364 37.236364 37.236363 18.618182 0 37.236364-13.963636 37.236363-37.236363V51.2c-4.654545-18.618182-18.618182-32.581818-37.236363-32.581818H46.545455 41.890909 37.236364 32.581818v805.236363c4.654545 18.618182 18.618182 32.581818 37.236364 32.581819h260.654545c18.618182-4.654545 32.581818-18.618182 32.581818-37.236364v-4.654545c-13.963636 0-27.927273-13.963636-46.545454-13.963637z" fill="#2fa0fe" p-id="9218"></path><path d="M214.109091 232.727273c-23.272727 0-41.890909 18.618182-41.890909 41.890909s18.618182 37.236364 37.236363 37.236363h418.909091c23.272727 0 37.236364-18.618182 37.236364-37.236363S651.636364 232.727273 628.363636 232.727273H214.109091zM386.327273 414.254545H214.109091c-23.272727 0-37.236364 18.618182-37.236364 37.236364 0 23.272727 18.618182 37.236364 37.236364 37.236364h172.218182c23.272727 0 37.236364-18.618182 37.236363-37.236364s-13.963636-37.236364-37.236363-37.236364zM763.345455 688.872727v-79.127272c0-23.272727-18.618182-37.236364-37.236364-37.236364-23.272727 0-37.236364 18.618182-37.236364 37.236364v111.70909c0 9.309091 4.654545 23.272727 13.963637 27.927273 9.309091 9.309091 18.618182 13.963636 27.927272 13.963637h111.709091c23.272727 0 37.236364-18.618182 37.236364-37.236364s-18.618182-37.236364-37.236364-37.236364h-79.127272z" fill="#2fa0fe" p-id="9219"></path><path d="M726.109091 442.181818c-153.6 0-279.272727 125.672727-279.272727 279.272727s125.672727 279.272727 279.272727 279.272728 279.272727-125.672727 279.272727-279.272728-125.672727-279.272727-279.272727-279.272727z m200.145454 283.927273c0 111.709091-93.090909 204.8-204.8 204.8s-204.8-93.090909-204.8-204.8 93.090909-204.8 204.8-204.8 204.8 88.436364 204.8 204.8z" fill="#2fa0fe" p-id="9220"></path></svg>