<?xml version="1.0" standalone="no"?><!DOCTYPE svg PUBLIC "-//W3C//DTD SVG 1.1//EN" "http://www.w3.org/Graphics/SVG/1.1/DTD/svg11.dtd"><svg t="1739869740647" class="icon" viewBox="0 0 1024 1024" version="1.1" xmlns="http://www.w3.org/2000/svg" p-id="11794" xmlns:xlink="http://www.w3.org/1999/xlink" width="128" height="128"><path d="M571.904 379.392c-48.128-47.616-125.44-47.616-173.568 0-23.04 23.04-35.84 53.76-35.84 86.528 0 32.256 12.8 63.488 35.84 86.528 48.128 47.616 125.44 47.616 173.568 0 23.04-23.04 35.84-53.76 35.84-86.528s-12.8-64-35.84-86.528z m69.632 104.96v30.208h120.32v-30.208h-120.32z m60.416-150.528v24.064h96.256v-24.064h-96.256z m-421.376 409.088l409.088-0.512s-63.488-143.872-204.8-143.872c-146.432 0-204.288 144.384-204.288 144.384z m516.608-457.216h1.024v-2.048c50.176 62.464 79.872 141.824 79.872 228.352 0 202.24-163.84 366.08-366.08 366.08s-366.08-163.84-366.08-366.08 163.84-366.08 366.08-366.08c105.472 0 200.192 44.544 266.752 115.712h-76.8v24.064h57.856l-57.344 48.128h37.376l57.344-48.128z m-36.352 138.24h1.024v-30.208h-120.32v30.208h72.704l-71.68 60.416h46.592l71.68-60.416z" p-id="11795" fill="#1296db"></path></svg>