<?xml version="1.0" standalone="no"?><!DOCTYPE svg PUBLIC "-//W3C//DTD SVG 1.1//EN" "http://www.w3.org/Graphics/SVG/1.1/DTD/svg11.dtd"><svg t="1740034051257" class="icon" viewBox="0 0 1084 1024" version="1.1" xmlns="http://www.w3.org/2000/svg" p-id="41037" xmlns:xlink="http://www.w3.org/1999/xlink" width="135.5" height="128"><path d="M0 866.244a136.072 136.072 0 0 0 136.102 136.071h785.77a136.072 136.072 0 0 0 136.1-136.071V482.605H0v383.639z" fill="#F9D11F" p-id="41038"></path><path d="M921.901 111.375h-30.96V222.75H779.534V111.375h-92.762V222.75H575.368V111.375h-92.763V222.75H371.23V111.375h-92.822V222.75H167.063V111.375h-30.991A136.072 136.072 0 0 0 0 247.447v235.158h1057.973V247.447A136.072 136.072 0 0 0 921.9 111.375" fill="#F83CB6" p-id="41039"></path><path d="M167.063 111.345h111.345V0H167.063z m204.167 0h111.345V0H371.23z m204.168 0h111.375V0H575.398z m204.167 0H890.94V0H779.565z" fill="#A267F8" p-id="41040"></path><path d="M167.063 222.72h111.345V111.345H167.063z m204.167 0h111.345V111.345H371.23z m204.168 0h111.375V111.345H575.398z m204.167 0H890.94V111.345H779.565z" fill="#7E42B9" p-id="41041"></path><path d="M213.444 649.638a55.688 55.688 0 1 1-111.345 0.03 55.688 55.688 0 0 1 111.345 0m185.615-0.03a55.688 55.688 0 1 1-111.345 0.03 55.688 55.688 0 0 1 111.345 0m185.615-0.03a55.718 55.718 0 1 1-111.375 0 55.718 55.718 0 0 1 111.375 0m185.615 0a55.718 55.718 0 1 1-111.375 0 55.718 55.718 0 0 1 111.375 0m185.645 0a55.718 55.718 0 1 1-111.435 0 55.718 55.718 0 0 1 111.435 0M213.444 816.7a55.688 55.688 0 1 1-111.345 0 55.688 55.688 0 0 1 111.345 0m185.615 0a55.688 55.688 0 1 1-111.345 0 55.688 55.688 0 0 1 111.345 0m185.615 0a55.718 55.718 0 1 1-111.375 0 55.718 55.718 0 0 1 111.375 0m185.615 0a55.718 55.718 0 1 1-111.375 0 55.718 55.718 0 0 1 111.375 0" fill="#FFFFFF" p-id="41042"></path></svg>