<?xml version="1.0" standalone="no"?><!DOCTYPE svg PUBLIC "-//W3C//DTD SVG 1.1//EN" "http://www.w3.org/Graphics/SVG/1.1/DTD/svg11.dtd"><svg t="1740108180182" class="icon" viewBox="0 0 1024 1024" version="1.1" xmlns="http://www.w3.org/2000/svg" p-id="52632" xmlns:xlink="http://www.w3.org/1999/xlink" width="128" height="128"><path d="M391.168 837.55479342c-11.49155555 0-23.09688889-2.38933333-34.01955555-7.28177778-22.98311111-10.24-44.94222222-22.98311111-65.19466667-37.66044447-23.552-17.06666667-36.29511111-45.73866667-33.45066667-74.86577776 2.61688889-26.16888889-2.048-49.83466667-13.88088889-70.31466667-11.83288889-20.48-30.03733333-36.29511111-53.93066667-47.104-26.73777778-12.06044445-45.16977778-37.43288889-48.24177777-66.33244445-2.61688889-25.25866667-2.61688889-50.97244445 0.11377777-76.34488887 3.072-28.78577778 21.504-54.15822222 48.128-66.1048889 23.89333333-10.80888889 42.09777778-26.624 53.93066667-47.104 11.83288889-20.48 16.49777778-44.14577778 13.76711111-70.20088889-2.95822222-29.24088889 10.12622222-58.14044445 34.13333334-75.43466666 10.01244445-7.168 20.48-13.99466667 31.17511111-20.13866668 10.69511111-6.144 21.84533333-11.94666667 33.10933333-16.95288887 26.96533333-12.17422222 58.59555555-8.98844445 82.37511111 8.19199998 21.27644445 15.36 44.032 23.09688889 67.69777778 23.0968889 23.66577778 0 46.42133333-7.85066667 67.69777778-23.0968889 23.66577778-17.06666667 54.84088889-20.36622222 81.35111111-8.64711109 23.32444445 10.35377778 45.51111111 23.09688889 66.10488889 38.00177777 23.552 17.06666667 36.29511111 45.73866667 33.45066667 74.86577777-2.61688889 26.16888889 2.048 49.83466667 13.88088888 70.31466667 11.83288889 20.48 30.03733333 36.29511111 53.93066667 47.104 26.73777778 12.06044445 45.16977778 37.43288889 48.24177778 66.33244445 2.61688889 24.91733333 2.61688889 50.28977778 0.11377777 75.32088888-2.95822222 29.35466667-21.504 55.06844445-48.24177777 67.12888889-23.89333333 10.80888889-42.09777778 26.624-53.93066667 47.104-11.83288889 20.48-16.49777778 44.14577778-13.76711111 70.20088889 2.95822222 29.24088889-10.12622222 58.14044445-34.13333333 75.43466666-10.01244445 7.168-20.48 13.99466667-31.17511112 20.13866668-10.69511111 6.144-21.84533333 11.94666667-33.10933333 16.95288887-26.96533333 12.17422222-58.59555555 8.98844445-82.37511111-8.19199998-21.27644445-15.36-44.032-23.09688889-67.69777778-23.0968889-23.66577778 0-46.42133333 7.85066667-67.69777778 23.0968889-14.22222222 10.35377778-31.28888889 15.58755555-48.35555555 15.58755556z m-0.22755555-628.62222224c-3.98222222 0-7.96444445 0.79644445-11.71911112 2.50311111-9.55733333 4.32355555-19.00088889 9.216-28.21688888 14.44977778-9.10222222 5.23377778-18.09066667 11.03644445-26.624 17.18044445-8.192 5.91644445-12.74311111 15.81511111-11.71911112 25.71377779 3.75466667 37.20533333-3.41333333 72.81777778-20.82133333 102.96888887s-44.60088889 54.272-78.73422222 69.63199999c-8.98844445 4.096-15.24622222 12.51555555-16.27022223 22.07288891-2.27555555 21.61777778-2.27555555 43.46311111 0 64.9671111 1.024 9.55733333 7.28177778 18.09066667 16.27022223 22.18666666 34.13333333 15.36 61.44 39.36711111 78.848 69.63200001 17.408 30.15111111 24.68977778 65.76355555 20.93511111 103.08266667-1.024 9.89866667 3.29955555 19.56977778 11.03644444 25.14488889 17.29422222 12.51555555 35.95377778 23.32444445 55.52355556 31.97155556 9.216 4.096 20.02488889 3.072 27.98933333-2.73066668 30.37866667-21.84533333 64.85333333-33.45066667 99.66933333-33.45066665h0.11377778c34.816 0 69.29066667 11.49155555 99.55555556 33.33688889 8.07822222 5.80266667 18.88711111 6.82666667 28.10311111 2.73066665 9.55733333-4.32355555 19.00088889-9.216 28.21688889-14.44977778 9.10222222-5.23377778 18.09066667-11.03644445 26.624-17.18044444 8.192-5.91644445 12.74311111-15.81511111 11.71911111-25.71377778-3.75466667-37.20533333 3.41333333-72.81777778 20.82133333-102.96888888s44.60088889-54.272 78.73422222-69.632c9.10222222-4.096 15.36-12.85688889 16.384-22.98311113 2.16177778-21.27644445 2.16177778-42.78044445 0-64.05688888-1.024-9.55733333-7.28177778-18.09066667-16.27022222-22.18666667-34.13333333-15.36-61.44-39.36711111-78.848-69.63199999-17.408-30.15111111-24.68977778-65.76355555-20.93511111-103.08266668 1.024-9.89866667-3.29955555-19.56977778-11.03644444-25.14488887-17.52177778-12.62933333-36.40888889-23.552-56.32-32.42666666-8.76088889-3.86844445-19.22844445-2.73066667-27.19288889 3.07199999-30.37866667 21.84533333-64.85333333 33.45066667-99.66933334 33.45066667h-0.11377777c-34.816 0-69.29066667-11.49155555-99.55555556-33.3368889-4.89244445-3.41333333-10.69511111-5.12-16.49777777-5.12zM507.33511111 655.39657118c-13.88088889 0-27.76177778-1.82044445-41.52888889-5.46133333-41.18755555-11.03644445-75.54844445-37.43288889-96.93866667-74.29688889-44.032-76.11733333-17.86311111-173.96622222 58.25422223-217.99822221 76.11733333-44.032 173.96622222-17.86311111 217.99822222 58.2542222 21.27644445 36.864 26.96533333 79.872 16.04266667 121.05955557-11.03644445 41.18755555-37.43288889 75.54844445-74.29688889 96.93866667-24.576 14.336-51.88266667 21.504-79.53066667 21.50399999z m-0.45511111-264.41955555c-17.74933333 0-35.84 4.55111111-52.33777778 14.10844445-50.06222222 28.89955555-67.24266667 93.29777778-38.34311111 143.36 13.99466667 24.23466667 36.63644445 41.64266667 63.71555556 48.81066666 27.07911111 7.28177778 55.296 3.52711111 79.64444444-10.46755556 24.23466667-13.99466667 41.64266667-36.63644445 48.81066667-63.71555555 7.28177778-27.07911111 3.52711111-55.296-10.46755556-79.64444445-19.456-33.67822222-54.72711111-52.45155555-91.02222222-52.45155555z" p-id="52633" fill="#6b6b6b"></path></svg>