<?xml version="1.0" standalone="no"?><!DOCTYPE svg PUBLIC "-//W3C//DTD SVG 1.1//EN" "http://www.w3.org/Graphics/SVG/1.1/DTD/svg11.dtd"><svg t="1739944931489" class="icon" viewBox="0 0 1024 1024" version="1.1" xmlns="http://www.w3.org/2000/svg" p-id="25929" xmlns:xlink="http://www.w3.org/1999/xlink" width="128" height="128"><path d="M164.295111 683.52c22.072889 0 40.106667 18.090667 40.106667 40.220444v260.039112a40.277333 40.277333 0 0 1-40.106667 40.220444H40.106667A40.277333 40.277333 0 0 1 0 983.779556v-259.982223c0-22.186667 18.033778-40.277333 40.106667-40.277333zM989.297778 0c20.707556 0 34.759111 14.051556 34.759111 34.872889V173.511111c0 20.764444-14.051556 34.872889-34.702222 34.872889-20.764444 0-34.759111-14.108444-34.759111-34.872889V111.274667l-313.287112 335.075555c-6.030222 8.704-24.689778 27.477333-51.427555 3.413334L369.379556 297.528889 59.448889 567.011556A57.457778 57.457778 0 0 1 11.377778 566.328889c-14.051556-13.425778-14.051556-40.903111 0-54.954667l330.638222-289.564444c13.368889-14.051556 34.076444-14.051556 48.071111 0l220.444445 152.177778 289.223111-304.298667h-48.071111c-20.707556 0-34.702222-14.051556-34.702223-34.816 0-20.821333 13.994667-34.872889 34.702223-34.872889zM446.179556 467.626667h-122.311112A40.106667 40.106667 0 0 0 284.444444 508.188444v475.420445c0 22.243556 17.749333 40.448 39.424 40.448h122.311112c21.674667 0 39.424-18.204444 39.424-40.448V508.131556a40.106667 40.106667 0 0 0-39.424-40.448z m269.482666 138.979555h-122.254222a40.106667 40.106667 0 0 0-39.424 40.391111v335.872c0 22.243556 17.749333 40.448 39.424 40.448h122.311111c21.617778 0 39.424-18.204444 39.424-40.448v-335.815111a40.106667 40.106667 0 0 0-39.480889-40.448zM984.576 398.222222h-122.311111a40.106667 40.106667 0 0 0-39.424 40.448v544.881778c0 22.243556 17.749333 40.448 39.424 40.448h122.311111c21.674667 0 39.424-18.204444 39.424-40.448V438.613333A40.106667 40.106667 0 0 0 984.576 398.222222z" fill="#36a7ef" p-id="25930"></path></svg>