<?xml version="1.0" standalone="no"?><!DOCTYPE svg PUBLIC "-//W3C//DTD SVG 1.1//EN" "http://www.w3.org/Graphics/SVG/1.1/DTD/svg11.dtd"><svg t="1739951262612" class="icon" viewBox="0 0 1024 1024" version="1.1" xmlns="http://www.w3.org/2000/svg" p-id="28893" xmlns:xlink="http://www.w3.org/1999/xlink" width="128" height="128"><path d="M667.555 575.365H484.197c-0.036 0-0.071-0.068-0.214-0.068-0.071 0-0.143 0.068-0.25 0.068-7.521 0-14.293-3.137-19.783-7.729-0.713-0.608-1.64-0.969-2.281-1.568-0.606-0.608-0.927-1.539-1.426-2.109-4.777-5.522-7.914-12.329-7.914-20.028 0-0.105 0.036-0.143 0.036-0.218 0-0.067-0.036-0.21-0.036-0.285v-318.36c0-17.556 14.116-31.921 31.403-31.921 17.288 0 31.475 14.365 31.475 31.921v287.421h152.347c17.574 0 31.938 14.152 31.938 31.442 0 17.318-14.363 31.434-31.937 31.434M512 1.002C229.834 1.002 0.994 229.806 0.994 511.99c0 282.235 228.841 511.008 511.006 511.008 282.236 0 511.006-228.773 511.006-511.008 0-282.184-228.77-510.988-511.006-510.988" fill="#4abe5b" p-id="28894"></path></svg>