<?xml version="1.0" standalone="no"?><!DOCTYPE svg PUBLIC "-//W3C//DTD SVG 1.1//EN" "http://www.w3.org/Graphics/SVG/1.1/DTD/svg11.dtd"><svg t="1740449203811" class="icon" viewBox="0 0 1024 1024" version="1.1" xmlns="http://www.w3.org/2000/svg" p-id="17708" xmlns:xlink="http://www.w3.org/1999/xlink" width="128" height="128"><path d="M512 618.84552533m-370.69346133 0a370.69346133 370.69346133 0 1 0 741.38692266 0 370.69346133 370.69346133 0 1 0-741.38692266 0Z" fill="#FFF447" p-id="17709"></path><path d="M860.422144 34.455552H631.22090667c-12.37538133 0-22.28224 8.66167467-25.19313067 20.12501333l-70.65873067 139.313152s151.28439467 9.10404267 240.648192 95.15281067l105.52388267-212.95377067c3.12388267-4.34722133 5.35210667-9.39895467 5.35210667-15.16612266a26.46562133 26.46562133 0 0 0-26.47108267-26.47108267zM488.67464533 193.89371733L418.021376 54.58056533c-2.91089067-11.46333867-12.828672-20.12501333-25.19313067-20.12501333H163.627008a26.48200533 26.48200533 0 0 0-26.476544 26.48200533c0 5.767168 2.228224 10.81344 5.35210667 15.16612267l105.529344 212.95377067C337.39025067 202.99776 488.67464533 193.89371733 488.67464533 193.89371733z" fill="#F2AE40" p-id="17710"></path><path d="M512 618.84552533m-286.949376 0a286.949376 286.949376 0 1 0 573.898752 0 286.949376 286.949376 0 1 0-573.898752 0Z" fill="#F2AE40" p-id="17711"></path><path d="M487.23285333 756.20352v-236.896256h-50.73578666l9.388032-52.72917333h105.660416v289.62542933H487.23285333z" fill="#FFFFFF" p-id="17712"></path></svg>