<?xml version="1.0" standalone="no"?><!DOCTYPE svg PUBLIC "-//W3C//DTD SVG 1.1//EN" "http://www.w3.org/Graphics/SVG/1.1/DTD/svg11.dtd"><svg t="1747719963687" class="icon" viewBox="0 0 1024 1024" version="1.1" xmlns="http://www.w3.org/2000/svg" p-id="2473" xmlns:xlink="http://www.w3.org/1999/xlink" width="128" height="128"><path d="M711.921987 390.144A311.673263 311.673263 0 0 0 399.601987 701.170526v0.269474a311.673263 311.673263 0 0 0 312.050526 311.296h0.269474A311.673263 311.673263 0 0 0 1024.241987 701.709474v-0.269474c0-171.546947-139.802947-311.296-312.32-311.296z m142.821053 409.061053c-4.581053 30.234947-21.504 96.256-112.64 102.453894v57.829053h-64.512v-57.344a619.681684 619.681684 0 0 1-110.053053-27.648l19.456-75.290947c28.672 11.264 67.045053 23.066947 100.352 27.162947 45.541053 5.12 76.261053-4.096 78.848-36.864 6.629053-57.344-196.122947-67.584-194.074947-171.546947-2.533053-76.261053 52.762947-109.568 108.058947-114.149053V443.877053h64.512v57.397894a233.040842 233.040842 0 0 1 93.669053 20.426106l-17.893053 71.194947c-28.186947-10.778947-57.344-20.48-91.674947-20.48-22.528 0-69.632 0-71.141053 30.72 0 53.248 89.088 55.781053 118.784 68.608 21.504 9.216 36.325053 17.946947 51.685053 32.768 26.138947 26.085053 31.744 59.877053 26.624 94.693053zM384.72704 0C172.273987 0 0.241987 84.992 0.241987 189.978947c0 104.933053 172.032 189.925053 384.485053 189.925053 212.506947 0 384.538947-84.992 384.538947-189.925053C769.265987 84.992 597.233987 0 384.72704 0z m175.642947 249.856c-5.658947 18.432-26.624 58.853053-138.778947 62.464v35.354947H342.74304v-34.816a1289.808842 1289.808842 0 0 1-135.653053-16.922947l23.552-46.08c35.301053 6.682947 82.405053 14.336 123.365053 16.384 55.834947 3.072 93.722947-2.586947 97.28-22.528 8.192-35.354947-241.125053-41.445053-239.077053-104.986947-3.610947-46.565053 64.997053-67.045053 133.12-69.578106V32.768h79.333053v34.816a541.642105 541.642105 0 0 1 115.226947 12.826947l-22.042947 43.493053c-34.816-6.682947-70.656-12.826947-113.125053-12.826947-27.648 0-85.477053 0-87.578947 18.970947 0 32.229053 109.568 34.277053 145.946947 41.984 26.624 5.605053 45.056 11.264 63.973053 19.994947 33.306947 15.845053 39.989895 36.325053 33.306947 57.829053zM506.097987 429.056c-40.151579 6.467368-80.680421 9.701053-121.370947 9.701053C201.969987 438.757053 48.85504 375.269053 9.94304 290.816a103.477895 103.477895 0 0 0-9.701053 42.469053c0 104.986947 172.032 189.978947 384.485053 189.978947 10.24 0 20.48-0.485053 30.72-0.485053a329.296842 329.296842 0 0 1 90.650947-93.722947z m252.928-52.224a101.861053 101.861053 0 0 0 10.778947-43.546947c0-14.336-3.610947-28.672-9.754947-41.930106-13.850947 30.181053-42.522947 57.290105-81.434947 80.357053 5.658947-0.538947 10.778947-1.024 16.384-1.024 21.504 0 43.008 2.048 64.026947 6.144z m-374.298947 187.392C201.969987 564.224 48.85504 500.736 9.94304 416.229053c-6.197895 13.150316-9.593263 27.486316-9.701053 42.037894 0 101.861053 162.816 185.290105 366.592 189.925053a347.082105 347.082105 0 0 1 25.6-83.968h-7.706947z m-21.989053 124.389053C189.681987 684.032 47.345987 622.592 9.94304 541.157053a102.615579 102.615579 0 0 0-9.701053 42.522947c0 102.4 164.325053 185.882947 370.149053 189.925053a330.266947 330.266947 0 0 1-8.192-71.626106c0-4.634947 0.538947-8.730947 0.538947-13.365894zM9.94304 666.624a102.723368 102.723368 0 0 0-9.701053 41.984c0 104.986947 172.032 189.925053 384.485053 189.925053 14.336 0 28.186947-0.485053 41.984-1.024a345.034105 345.034105 0 0 1-44.517053-83.429053c-181.786947 0-333.338947-63.488-372.250947-147.456z m450.56 269.312c-24.576 2.533053-49.637053 3.557053-75.776 3.557053-182.757053 0-335.872-63.488-374.784-147.941053a103.477895 103.477895 0 0 0-9.701053 42.522947C0.241987 939.008 172.273987 1024 384.72704 1024a735.124211 735.124211 0 0 0 173.594947-20.48 351.932632 351.932632 0 0 1-97.818947-67.584z" fill="#efb336" p-id="2474"></path></svg>