<?xml version="1.0" standalone="no"?><!DOCTYPE svg PUBLIC "-//W3C//DTD SVG 1.1//EN" "http://www.w3.org/Graphics/SVG/1.1/DTD/svg11.dtd"><svg t="1740022305400" class="icon" viewBox="0 0 1025 1024" version="1.1" xmlns="http://www.w3.org/2000/svg" p-id="35898" xmlns:xlink="http://www.w3.org/1999/xlink" width="128.125" height="128"><path d="M64.923402 274.618182c27.867214 17.126725 65.984438 32.031281 113.300645 44.353314 90.248133 23.452903 209.204301 36.375523 335.037185 36.375523s244.789052-12.92262 335.037184-36.375523c47.316207-12.302014 85.433431-27.226588 113.290636-44.353314 53.051808-32.591828 64.172669-70.709052 64.172668-96.944673s-11.13087-64.352845-64.172668-96.944672c-27.857204-17.126725-65.974428-32.031281-113.290636-44.353314C758.050283 12.92262 639.064086 0 513.261232 0S268.47218 12.92262 178.224047 36.375523C130.90784 48.677537 92.790616 63.602111 64.923402 80.728837 11.891613 113.320665 0.760743 151.437889 0.760743 177.673509s11.13087 64.352845 64.162659 96.944673z m173.699628-129.1261C315.247859 129.1261 412.783109 120.117302 513.261232 120.117302s198.013372 9.008798 274.628191 25.404809c50.929736 10.880626 82.79085 22.902366 101.158788 32.151398-18.367937 9.249032-50.229052 21.270772-101.158788 32.151398C711.274604 226.220919 613.739355 235.229717 513.261232 235.229717s-198.013372-9.008798-274.638202-25.40481c-50.919726-10.880626-82.780841-22.902366-101.158788-32.151398 18.377947-9.249032 50.239062-21.270772 101.158788-32.151398z" fill="#273442" p-id="35899"></path><path d="M964.942326 379.75085a60.058651 60.058651 0 0 0-60.058651 60.058651c0 8.077889-17.286882 37.82694-94.091886 67.475895-77.575758 29.949247-186.301935 47.136031-298.2913 47.136031s-220.715543-17.186784-298.2913-47.136031c-76.805005-29.648954-94.091887-59.398006-94.091887-67.475895a60.058651 60.058651 0 0 0-120.117302 0c0 28.297634 9.559335 70.759101 55.123832 112.339707 28.317654 25.855249 67.285709 48.457322 115.823108 67.195621 92.190029 35.584751 213.488485 55.1939 341.553549 55.1939s249.363519-19.60915 341.553548-55.1939c48.5374-18.738299 87.505455-41.340371 115.823109-67.195621 45.564497-41.580606 55.123832-84.082111 55.123832-112.339707a60.058651 60.058651 0 0 0-60.058652-60.058651z" fill="#14AB64" p-id="35900"></path><path d="M964.942326 729.212121a60.058651 60.058651 0 0 0-60.058651 60.058651c0 8.087898-17.286882 37.82694-94.091886 67.485904C733.216031 886.705924 624.489853 903.882698 512.500489 903.882698s-220.715543-17.176774-298.2913-47.126022c-76.805005-29.658964-94.091887-59.398006-94.091887-67.485904a60.058651 60.058651 0 0 0-120.117302 0c0 28.297634 9.559335 70.759101 55.123832 112.349717 28.317654 25.845239 67.285709 48.447312 115.823108 67.185611C263.13697 1004.40086 384.435425 1024 512.500489 1024s249.363519-19.59914 341.553548-55.1939c48.5374-18.738299 87.505455-41.340371 115.823109-67.185611 45.564497-41.590616 55.123832-84.082111 55.123832-112.349717a60.058651 60.058651 0 0 0-60.058652-60.058651z" fill="#273442" p-id="35901"></path></svg>