<?xml version="1.0" standalone="no"?><!DOCTYPE svg PUBLIC "-//W3C//DTD SVG 1.1//EN" "http://www.w3.org/Graphics/SVG/1.1/DTD/svg11.dtd"><svg t="1740016058021" class="icon" viewBox="0 0 1024 1024" version="1.1" xmlns="http://www.w3.org/2000/svg" p-id="32135" xmlns:xlink="http://www.w3.org/1999/xlink" width="128" height="128"><path d="M800.4 961.7h-577c-88 0-160-72-160-160v-577c0-88 72-160 160-160h577c88 0 160 72 160 160v577c0 88-72 160-160 160z" fill="#2169F9" p-id="32136"></path><path d="M576.1 513.3c-9.6 0-18.8-3.8-25.6-10.7L437.4 388.1l-113.3 65.7c-17.2 10-39.2 4.1-49.2-13.1s-4.1-39.2 13.1-49.2l137.4-79.7c14.2-8.2 32.1-5.8 43.7 5.8L573 422.7l116.8-150c12.2-15.7 34.8-18.5 50.5-6.3s18.5 34.8 6.3 50.5l-142 182.3c-6.4 8.2-15.9 13.2-26.3 13.8-0.8 0.3-1.5 0.3-2.2 0.3z" fill="#FFFFFF" p-id="32137"></path><path d="M346 831.7h-80c-5.5 0-10-4.5-10-10V617.4c0-5.5 4.5-10 10-10h80c5.5 0 10 4.5 10 10v204.3c0 5.5-4.4 10-10 10zM483.4 831.7h-80c-5.5 0-10-4.5-10-10V560.4c0-5.5 4.5-10 10-10h80c5.5 0 10 4.5 10 10v261.3c0 5.5-4.5 10-10 10zM620.8 831.7h-80c-5.5 0-10-4.5-10-10v-142c0-5.5 4.5-10 10-10h80c5.5 0 10 4.5 10 10v142c0 5.5-4.5 10-10 10zM758.1 831.7h-80c-5.5 0-10-4.5-10-10V502.5c0-5.5 4.5-10 10-10h80c5.5 0 10 4.5 10 10v319.2c0 5.5-4.4 10-10 10z" fill="#00DDF4" p-id="32138"></path></svg>