<?xml version="1.0" standalone="no"?><!DOCTYPE svg PUBLIC "-//W3C//DTD SVG 1.1//EN" "http://www.w3.org/Graphics/SVG/1.1/DTD/svg11.dtd"><svg t="1740034165110" class="icon" viewBox="0 0 1024 1024" version="1.1" xmlns="http://www.w3.org/2000/svg" p-id="44892" xmlns:xlink="http://www.w3.org/1999/xlink" width="128" height="128"><path d="M228.9824 547.1776c-35.991467 0-65.226667 29.236267-65.226667 65.2672 0 36.034133 29.2352 65.2704 65.226667 65.2704 36.074667 0 65.309867-29.236267 65.309867-65.2704C294.292267 576.413867 265.057067 547.1776 228.9824 547.1776L228.9824 547.1776zM228.9824 634.2592c-11.969067 0-21.729067-9.76-21.729067-21.7696 0-12.0128 9.758933-21.7312 21.729067-21.7312 12.053333 0 21.7696 9.7184 21.7696 21.7312C250.752 624.4992 241.035733 634.2592 228.9824 634.2592L228.9824 634.2592zM685.9424 351.374933c-180.247467 0-326.381867 146.133333-326.381867 326.382933 0 180.2464 146.1344 326.378667 326.381867 326.378667 180.247467 0 326.382933-146.132267 326.382933-326.378667C1012.325333 497.508267 866.189867 351.374933 685.9424 351.374933L685.9424 351.374933zM685.9424 960.638933c-156.226133 0-282.884267-126.6592-282.884267-282.881067 0-156.2272 126.658133-282.842667 282.884267-282.842667 156.2272 0 282.884267 126.615467 282.884267 282.842667C968.826667 833.978667 842.1696 960.638933 685.9424 960.638933L685.9424 960.638933zM98.445867 851.832533c-24.0224 0-43.540267-19.476267-43.540267-43.5008L54.9056 155.5296c0-24.023467 19.517867-43.5424 43.540267-43.5424l43.5392 0c0 36.075733 29.194667 65.268267 65.226667 65.268267 36.074667 0 65.268267-29.1936 65.268267-65.268267l87.038933 0c0 36.075733 29.2352 65.268267 65.268267 65.268267 36.032 0 65.2672-29.1936 65.2672-65.268267l87.037867 0c0 36.075733 29.192533 65.268267 65.268267 65.268267 36.030933 0 65.2256-29.1936 65.2256-65.268267l43.5392 0c24.023467 0 43.541333 19.518933 43.541333 43.5424l0 168.610133c14.930133 4.587733 29.4016 10.385067 43.4976 16.765867L838.164267 155.5296c0-48.046933-38.993067-87.04-87.038933-87.04l-43.5392 0c0-36.030933-29.194667-65.2672-65.2256-65.2672-36.075733 0-65.268267 29.236267-65.268267 65.2672l-87.037867 0c0.0832-36.030933-29.1936-65.2672-65.226667-65.2672-36.033067 0-65.2672 29.236267-65.2672 65.2672L272.522667 68.4896c0-36.030933-29.194667-65.2672-65.309867-65.2672-36.032 0-65.226667 29.236267-65.226667 65.2672L98.445867 68.4896c-48.043733 0-87.038933 38.993067-87.038933 87.04l0 652.763733c0 48.043733 38.9952 87.037867 87.038933 87.037867l288.8064 0c-10.093867-13.889067-19.477333-28.321067-27.608533-43.5424L98.445867 851.7888 98.445867 851.832533 98.445867 851.832533zM620.674133 68.488533c0-12.010667 9.675733-21.7696 21.730133-21.7696 11.969067 0 21.728 9.758933 21.728 21.7696l0 43.4976c0 12.011733-9.757867 21.7728-21.728 21.7728-12.0544 0-21.730133-9.76-21.730133-21.7728L620.674133 68.488533 620.674133 68.488533zM403.058133 68.488533c0-12.010667 9.76-21.7696 21.7696-21.7696 12.010667 0 21.729067 9.758933 21.729067 21.7696l0 43.4976c0 12.011733-9.717333 21.7728-21.729067 21.7728-12.0096 0-21.7696-9.76-21.7696-21.7728L403.058133 68.488533 403.058133 68.488533zM185.483733 68.488533c0-12.010667 9.76-21.7696 21.729067-21.7696 12.052267 0 21.729067 9.758933 21.729067 21.7696l0 43.4976c0 12.011733-9.6768 21.7728-21.729067 21.7728-11.969067 0-21.729067-9.76-21.729067-21.7728L185.483733 68.488533 185.483733 68.488533zM881.748267 655.9872 747.1648 655.9872c-6.5056-18.4352-21.0176-32.9472-39.4944-39.536L707.6704 481.9104c0-12.0128-9.717333-21.7696-21.728-21.7696s-21.729067 9.7568-21.729067 21.7696l0 134.5408c-25.313067 9.008-43.4976 32.9056-43.4976 61.306667 0 36.034133 29.194667 65.266133 65.226667 65.266133 28.401067 0 52.298667-18.266667 61.266133-43.538133l134.5792 0c12.0544 0 21.729067-9.717333 21.729067-21.726933C903.5168 665.745067 893.799467 655.9872 881.748267 655.9872L881.748267 655.9872zM685.9424 699.4848c-12.010667 0-21.729067-9.717333-21.729067-21.726933 0-12.0128 9.7184-21.728 21.729067-21.728s21.728 9.7152 21.728 21.728C707.6704 689.7664 697.954133 699.4848 685.9424 699.4848L685.9424 699.4848zM228.9824 307.8752c-35.991467 0-65.226667 29.194667-65.226667 65.2256 0 36.075733 29.2352 65.268267 65.226667 65.268267 36.074667 0 65.309867-29.192533 65.309867-65.268267C294.292267 337.0688 265.057067 307.8752 228.9824 307.8752L228.9824 307.8752zM228.9824 394.9152c-11.969067 0-21.729067-9.76-21.729067-21.771733s9.758933-21.729067 21.729067-21.729067c12.053333 0 21.7696 9.7184 21.7696 21.729067S241.035733 394.9152 228.9824 394.9152L228.9824 394.9152zM424.827733 307.8752c-36.033067 0-65.2672 29.194667-65.2672 65.2256 0 29.7792 20.018133 54.594133 47.252267 62.434133 23.813333-27.400533 51.588267-51.255467 82.491733-70.690133C485.133867 332.7328 458.0256 307.8752 424.827733 307.8752L424.827733 307.8752zM424.827733 394.9152c-12.0096 0-21.7696-9.76-21.7696-21.771733s9.76-21.729067 21.7696-21.729067c12.010667 0 21.729067 9.7184 21.729067 21.729067S436.839467 394.9152 424.827733 394.9152L424.827733 394.9152z" p-id="44893" fill="#fc5822"></path></svg>