<?xml version="1.0" standalone="no"?><!DOCTYPE svg PUBLIC "-//W3C//DTD SVG 1.1//EN" "http://www.w3.org/Graphics/SVG/1.1/DTD/svg11.dtd"><svg t="1740019658049" class="icon" viewBox="0 0 1024 1024" version="1.1" xmlns="http://www.w3.org/2000/svg" p-id="33496" xmlns:xlink="http://www.w3.org/1999/xlink" width="128" height="128"><path d="M767.1 334.3c-10.7-4.4-21.6-8.2-32.6-11.4v-110c0-1.8-0.1-3.6-0.3-5.3 0.3-2.2 0.5-4.5 0.5-6.8 0-70-139.5-101.8-269.3-101.8C335.5 99 196 130.3 196 200.3c0 2.1 0.1 4.1 0.4 6.1-0.3 2.1-0.5 4.2-0.5 6.4v95c-84.5 17.1-132.2 48.8-132.2 88.8 0 2.2 0.1 4.3 0.4 6.5-0.3 1.9-0.4 3.9-0.4 5.9v153.8c0 1.7 0.1 3.4 0.3 5.1h-0.4c0 28.3 22.7 50.3 58.4 66.5 0 2.2 0.1 4.3 0.4 6.4-0.3 2-0.4 4-0.4 6v153.8c0 1.7 0.1 3.4 0.3 5.1h-0.3c0 70 139.6 101.8 269.3 101.8 41.7 0.2 83.3-3.2 124.4-10.2 40.9 19.6 86.4 30.4 133.6 30.4 170.2-0.3 308.1-138.2 308.3-308.5 0-124.7-75.2-237.2-190.5-284.9zM431 401.2c-8 8-15.4 16.3-22.4 25-117.6-9.1-167.4-42.4-167.4-54.1h-1.3v-6.7c0.3 0 0.7 0.1 0.9 0.4 0.2 0.2 0.4 0.6 0.4 0.9V260.2c51.7 28.6 140 42 224.2 42 84 0 172.2-13.2 223.9-41.5v52.7c-93.6-12.3-189.5 18.9-258.3 87.8z m34.4-257c147.7 0 224 39.6 224 56.6s-76.2 56.6-224 56.6-224.1-39.6-224.1-56.6 76.3-56.6 224.1-56.6zM195.9 354.1v12.5c0 1.8 0.1 3.6 0.3 5.4h-0.3c0 37.7 40.8 63.6 95.8 79.8C171 445.4 109 411.9 109 396.6c0-8.8 26.5-28.7 86.9-42.5z m-87.1 213.8h-1.2v-6.4c0.3 0 0.7 0.1 0.9 0.4 0.2 0.2 0.4 0.6 0.4 0.9V456.4c51.6 28.4 139.8 41.8 223.9 41.8 11 0 22-0.2 32.8-0.7-17.2 40-25.7 83.3-25 126.9h-7.9c-147.7 0-223.9-39.6-223.9-56.5z m240 121.7c-75.7-4.2-128.2-19.1-156.6-33.3 43.2 9.1 92.6 13.4 140.6 13.4 3.9 0 7.9 0 11.9-0.1 1.2 6.7 2.6 13.4 4.1 20z m42.5 172.7c-147.8 0-224-39.6-224-56.6H166v-6.4c0.3 0 0.7 0.1 0.9 0.4 0.2 0.2 0.4 0.6 0.4 0.9V694.1c46 25.4 121 38.7 196.2 41.4 0.2 0.6 0.5 1.2 0.7 1.8 20.2 48.8 52.1 90.4 91.6 122.2-21.5 2-43 2.9-64.5 2.8z m358.7 0.3c-98.4 40.8-211.6 18.3-286.9-57-31.1-31.1-53.2-68.6-65.5-108.9l-0.1-5.9h-1.7c-15.7-55.7-12.9-116.3 10.2-172 40.8-98.4 136.8-162.5 243.3-162.4v-0.2c145.2 0.2 262.9 117.9 263.1 263.1 0 106.4-64.1 202.5-162.4 243.3z" fill="#f7733a" p-id="33497"></path><path d="M669.4 495.8l-1.9-1.9c-1-1-2.3-1.6-3.7-1.8-2.3-1.5-5.1-2.2-7.8-1.9-3.6 0.1-7.2 0.8-10.7 1.9-1.8 0-1.8 1.8-3.7 1.8-0.5 0-1 0.2-1.3 0.5-0.4 0.4-0.5 0.8-0.5 1.3l-83.6 77.7c-3.4 3.6-5.4 8.4-5.7 13.4-0.1 5 2 9.9 5.7 13.3 7.9 7.6 20.4 7.6 28.3 0l49.2-45.3v174.6c0.1 5.3 2.4 10.3 6.3 13.8 3.9 3.6 9.1 5.4 14.4 5 10.8 0.1 19.8-8.1 20.8-18.8V554.7l49.2 45.3c7.9 7.7 20.4 7.7 28.3 0 3.4-3.6 5.4-8.3 5.7-13.3 0.1-5.1-2-9.9-5.7-13.3l-83.3-77.6z" fill="#f7733a" p-id="33498"></path></svg>