<?xml version="1.0" standalone="no"?><!DOCTYPE svg PUBLIC "-//W3C//DTD SVG 1.1//EN" "http://www.w3.org/Graphics/SVG/1.1/DTD/svg11.dtd"><svg t="1739933995257" class="icon" viewBox="0 0 1024 1024" version="1.1" xmlns="http://www.w3.org/2000/svg" p-id="24806" xmlns:xlink="http://www.w3.org/1999/xlink" width="128" height="128"><path d="M512 0C226.747733 0 0 226.747733 0 512s226.747733 512 512 512 512-226.747733 512-512S797.252267 0 512 0z m124.347733 541.252267l-212.104533 212.104533c-7.338667 14.6432-29.2864 14.6432-36.590933 0-14.609067-14.609067-14.609067-29.252267 0-36.5568l197.495466-204.8-204.8-197.495467c-14.6432-14.609067-14.6432-29.252267 0-36.5568 7.304533-14.6432 29.252267-14.6432 36.5568 0l212.138667 212.104534c14.609067 7.304533 21.9136 14.6432 21.9136 21.947733 0 7.304533-7.304533 21.947733-14.609067 29.252267z" fill="#bbbbbb" p-id="24807"></path></svg>