<?xml version="1.0" standalone="no"?><!DOCTYPE svg PUBLIC "-//W3C//DTD SVG 1.1//EN" "http://www.w3.org/Graphics/SVG/1.1/DTD/svg11.dtd"><svg t="1740449233873" class="icon" viewBox="0 0 1024 1024" version="1.1" xmlns="http://www.w3.org/2000/svg" p-id="21036" xmlns:xlink="http://www.w3.org/1999/xlink" width="128" height="128"><path d="M731.09534341 582.53129955L501.35282725 716.88252682c-74.16490667-45.46256592-215.04788859-123.65308208-215.04788858-123.65308207l-254.6194963 248.1933274 203.48563911 4.48436148 4.5341203 203.53418429 272.79724089-271.41006222c32.60658725 31.26309925 71.76434725 68.40623408 70.69149866 69.32737897l202.03292445 202.08146963 4.53533392-203.53297067 203.48685275-4.48436148-262.15370904-258.8914726z" fill="#FFC900" p-id="21037"></path><path d="M679.12529541 606.98715022l-177.77246816 109.89416296c-74.16490667-45.46256592-173.77962667-109.89416297-173.77962666-109.89416296L89.12774637 842.37425778 235.17108148 845.90592l3.75011555 115.68924445 233.85793422-232.33118815c32.60780089 31.26431289 72.91486815 0.60681482 71.8395923 1.52917333l241.50258727 244.55850667 3.64088888-129.4457363 138.50912238-3.53287585-249.14602667-235.38710756z" fill="#FF3C07" p-id="21038"></path><path d="M646.41069511 731.80653037l78.43688297 12.92515555a49.80614637 49.80614637 0 0 0 37.3640154-8.8352237 49.8279917 49.8279917 0 0 0 19.93386667-32.84688592l11.83895703-78.48542815a48.86194252 48.86194252 0 0 1 26.41707615-36.34213926l71.03252859-35.54721186c11.90327941-5.93586252 20.90477037-16.45681778 25.02868386-29.08342044a49.73090133 49.73090133 0 0 0-3.11660089-38.25481956l-36.52418371-70.60654458a48.73329778 48.73329778 0 0 1 0-44.84846934l36.52418371-70.60411733a49.71997867 49.71997867 0 0 0 3.11660089-38.2523923c-4.12269985-12.62902992-13.12540445-23.15119882-25.02868386-29.08827496l-71.03374222-35.54721185a48.85344711 48.85344711 0 0 1-26.41586252-36.37369364l-11.83895703-78.45387378a49.81706903 49.81706903 0 0 0-19.93386667-32.84324503 49.77944652 49.77944652 0 0 0-37.3640154-8.84007822l-78.43688297 12.93001008c-15.64854045 2.56925392-31.54223408-2.57289482-42.67364503-13.8523686l-55.86337186-56.58912237a49.70177422 49.70177422 0 0 0-35.41613985-14.83904948 49.69449245 49.69449245 0 0 0-35.40036267 14.83904948l-55.86337185 56.58912237c-11.13019733 11.27826015-27.02510459 16.42040889-42.67485867 13.8523686l-78.43566933-12.93001008c-13.12297718-2.1748243-26.57848889 1.02308978-37.36158815 8.84007822a49.83284622 49.83284622 0 0 0-19.93508029 32.84324503L230.94765037 160.04740741a48.86072889 48.86072889 0 0 1-26.41464889 36.34092562l-71.03374223 35.54842549c-11.90327941 5.93464889-20.905984 16.45803141-25.02989747 29.08827496a49.71391052 49.71391052 0 0 0 3.11781452 38.2523923l36.52297007 70.60411733a48.73329778 48.73329778 0 0 1 0 44.84846934L111.5871763 485.33655703a49.71997867 49.71997867 0 0 0-3.11781452 38.25360594c4.12391348 12.63024355 13.12661808 23.14877155 25.03111111 29.08463406l71.03252859 35.54721186a48.86558341 48.86558341 0 0 1 26.41464889 36.37612089l11.83895704 78.45144652a49.84134163 49.84134163 0 0 0 19.93508029 32.84688592c10.78309925 7.81334755 24.23861097 11.01126163 37.36158815 8.8352237l78.43688297-12.92515555c15.64854045-2.57289482 31.5434477 2.57289482 42.67364503 13.84751408l55.86337185 56.590336a49.68356978 49.68356978 0 0 0 35.40036267 14.8402631 49.69206518 49.69206518 0 0 0 35.41613985-14.8402631l55.86337186-56.58912237a48.79397925 48.79397925 0 0 1 42.67364503-13.84872771z" fill="#DEDEDE" p-id="21039"></path><path d="M512.45753837 679.53428859c-162.46981215 0-294.66563318-132.19339378-294.66563319-294.64621511 0-162.48801659 132.19582103-294.68141037 294.66563319-294.68141037 162.48801659 0 294.68505125 132.19339378 294.68505126 294.68141037 0 162.45282133-132.19703467 294.64621511-294.68505126 294.64621511z" fill="#BBBBBB" p-id="21040"></path><path d="M512.45996563 618.037248c-128.56221392 0-233.16859259-104.60395141-233.1685926-233.15402903 0-128.57556385 104.60637867-233.17951525 233.1685926-233.17951527 128.57677748 0 233.18436978 104.60516503 233.18436978 233.17951527 0 128.55007763-104.6075923 233.15402903-233.18436978 233.15402903z" fill="#DEDEDE" p-id="21041"></path><path d="M469.73534815 488.34393125c-20.41325037 0-25.27140978 0.32403911-35.6394477 1.62019557 3.56443022-25.59423525 4.53533392-30.45482192 9.39470696-42.7658809 8.09976415-20.41325037 21.70819318-38.23176059 42.11901629-55.72744533 11.34015525-9.71874608 11.98823348-10.04278518 49.57070222-35.6394477 32.07501748-21.70697955 42.76830815-35.96348682 42.76830816-55.72501807 0-24.62454518-20.73607585-40.49882075-53.78321067-40.49882074-21.38415408 0-37.25842963 7.12643318-46.97960296 21.05890133-6.15552948 8.74784237-9.07188148 16.52356741-11.33894163 32.7230957l-27.21564445-4.53533393c4.85937303-23.32717511 9.7199597-34.66733037 20.41082311-46.65435021 14.58054637-16.52356741 36.61035141-24.94737067 65.12336593-24.94737067 48.922624 0 80.34834963 24.62454518 80.34834962 62.85387852 0 16.52478103-6.48078222 32.07623111-19.11466666 46.00748563-9.7199597 11.01611615-18.14376297 17.17285925-55.07936712 41.79376355-25.59544889 17.17285925-35.96227318 26.24352711-46.65435022 39.85074252-10.04278518 13.2831763-14.57933275 22.0322323-18.46658844 37.58246873h103.35269926c16.1995283 0 27.21443082-0.64686459 39.5267034-2.26706014v27.21564444c-12.96156445-1.29615645-23.65121422-1.94423467-39.8507425-1.94423466h-98.4921126z" fill="#7F8388" p-id="21042"></path></svg>