<?xml version="1.0" standalone="no"?><!DOCTYPE svg PUBLIC "-//W3C//DTD SVG 1.1//EN" "http://www.w3.org/Graphics/SVG/1.1/DTD/svg11.dtd"><svg t="1740032102607" class="icon" viewBox="0 0 1024 1024" version="1.1" xmlns="http://www.w3.org/2000/svg" p-id="38775" xmlns:xlink="http://www.w3.org/1999/xlink" width="128" height="128"><path d="M768 256H256c-70.4 0-128 57.6-128 128v448c0 70.4 57.6 128 128 128h512c70.4 0 128-57.6 128-128V384c0-70.4-57.6-128-128-128z" fill="#92C8FF" p-id="38776"></path><path d="M950.35 300.498c0-3.659-1.916-5.368-1.916-5.368l-75.661-173.685C859.16 85.633 822.349 64.1 777.744 64.1h-527.53c-44.599 0-79.558 21.474-93.107 55.519L75.566 296.958c0 1.709 0 1.709-1.854 3.6-6.065 16.129-9.346 33.056-9.712 50.146 0 60.881 36.812 116.399 93.107 143.244C180.306 506.514 209.506 512 240.501 512c52.342 0 100.84-21.533 135.799-59.176 33.312 36.345 82.273 57.295 133.84 57.272 51.575-0.022 100.513-21.013 133.79-57.386 33.892 36.668 83.585 57.651 135.794 57.341 33.038 0 60.138-7.14 85.442-17.929 56.232-28.613 93.044-84.132 93.044-143.249 1.916-14.336-1.98-32.21-7.86-48.375z" fill="#409EFF" p-id="38777"></path><path d="M480 960H256V704c0-35.2 28.8-64 64-64h96c35.2 0 64 28.8 64 64v256z" fill="#409EFF" p-id="38778"></path><path d="M832 352H192c-17.6 0-32-14.4-32-32s14.4-32 32-32h640c17.6 0 32 14.4 32 32s-14.4 32-32 32z" fill="#92C8FF" p-id="38779"></path><path d="M416 800a16 32 0 1 0 32 0 16 32 0 1 0-32 0Z" fill="#92C8FF" p-id="38780"></path></svg>