<?xml version="1.0" standalone="no"?><!DOCTYPE svg PUBLIC "-//W3C//DTD SVG 1.1//EN" "http://www.w3.org/Graphics/SVG/1.1/DTD/svg11.dtd"><svg t="1739870201801" class="icon" viewBox="0 0 1024 1024" version="1.1" xmlns="http://www.w3.org/2000/svg" p-id="13097" xmlns:xlink="http://www.w3.org/1999/xlink" width="128" height="128"><path d="M121.5 846.7c0-22.2 16.7-29.2 23.4-32.3l245.6-116c17.6-8.1 29.8-24.8 32.1-44 2.4-19.3-5.4-38.4-20.5-50.5-58.1-46.7-85.2-149.3-85.2-204V260c0-58.5 101.7-139.8 195.9-139.8 95 0 195.7 80.1 195.7 139.8v139.9c0 53.8-22.4 156.9-82.4 204.1a56.006 56.006 0 0 0-20.9 50.6c2.3 19.4 14.5 36.1 32.2 44.3l83.8 39.8 13.8-55.9-74.3-34.8c77.5-61 103.7-180.9 103.7-248.1V260c0-92.7-128.1-195.8-251.6-195.8S261 167.4 261 260v139.9c0 61.1 27.9 184.8 106.1 247.6l-245.6 116s-55.9 24.9-55.9 56v84c0 30.9 25 56 55.9 56h615.2v-56H121.6v-56.8z m810.9-54.9H708.7c-15.4 0-28 12.5-28 28s12.5 28 28 28h223.7c15.4 0 28-12.5 28-28s-12.6-28-28-28z" fill="#ff736e" p-id="13098"></path></svg>