<?xml version="1.0" standalone="no"?><!DOCTYPE svg PUBLIC "-//W3C//DTD SVG 1.1//EN" "http://www.w3.org/Graphics/SVG/1.1/DTD/svg11.dtd"><svg t="1739519140612" class="icon" viewBox="0 0 1024 1024" version="1.1" xmlns="http://www.w3.org/2000/svg" p-id="14891" xmlns:xlink="http://www.w3.org/1999/xlink" width="128" height="128"><path d="M765.056 2.176H471.104c-0.768 0-1.152 0.32-1.152 1.152a37.376 37.376 0 0 0-18.304 6.912c-0.768 0-1.536 0.32-2.368 1.152l-3.456 1.152L45.12 413.248a144.64 144.64 0 0 0-38.464 140.608c6.528 24.832 19.328 46.464 38.464 64.896l359.36 360.512c29.12 28.352 63.744 42.56 103.936 42.56s74.496-14.208 102.784-42.56l398.528-398.4c0.768-0.768 1.28-2.048 1.6-4.032a8.512 8.512 0 0 1 1.728-4.032 33.728 33.728 0 0 0 9.216-22.976V259.392a336.32 336.32 0 0 0-20.032-97.536c-11.136-29.12-23.808-52.224-38.016-69.504a221.952 221.952 0 0 0-51.008-45.312 278.784 278.784 0 0 0-51.776-27.584 278.08 278.08 0 0 0-48.704-12.608 287.616 287.616 0 0 0-33.856-4.608l-13.824-0.064z m28.736 477.632h-114.816l34.368 34.496c6.912 7.68 10.368 16.448 10.368 26.432s-3.456 18.368-10.368 25.28a38.848 38.848 0 0 1-16.64 9.792 32.896 32.896 0 0 1-18.944 0 39.168 39.168 0 0 1-16.128-9.792l-76.8-76.992L516.992 556.8l76.992 76.992c7.616 6.848 11.52 15.488 11.52 25.856 0 10.24-3.904 18.944-11.52 25.792a35.968 35.968 0 0 1-34.56 9.152 40.32 40.32 0 0 1-17.216-9.152L465.344 608.448 383.808 689.92a34.368 34.368 0 0 1-25.344 10.368 35.328 35.328 0 0 1-25.792-10.88 35.456 35.456 0 0 1-10.88-25.856 34.112 34.112 0 0 1 10.304-25.28l81.536-81.536L336.64 479.808a73.472 73.472 0 0 0-4.544-6.336 19.392 19.392 0 0 1-3.456-6.272 47.424 47.424 0 0 1-2.304-13.888 31.296 31.296 0 0 1 0.576-6.848 54.528 54.528 0 0 1 1.728-6.912 20.416 20.416 0 0 1 3.456-6.336 38.208 38.208 0 0 1 21.184-14.912c6.528-1.92 12.8-1.92 18.944 0a38.016 38.016 0 0 1 16.128 9.728L465.28 504.96l67.776-67.776L456.128 360.32a27.328 27.328 0 0 1-8.576-11.52 35.584 35.584 0 0 1 8.576-40.192 34.56 34.56 0 0 1 25.216-10.368c9.984 0 18.816 3.52 26.432 10.368l31.04 32.128v-111.36c0-9.92 3.648-18.368 10.88-25.28a36.288 36.288 0 0 1 25.856-10.304c9.984 0 18.432 3.456 25.344 10.304a34.304 34.304 0 0 1 10.304 25.28v177.984h182.656c6.784 0 12.992 1.536 18.368 4.544a37.12 37.12 0 0 1 18.304 32.192c0 9.984-3.648 18.368-10.88 25.28s-15.936 10.368-25.792 10.368v0.064h-0.064z m57.28-247.936a66.56 66.56 0 0 1-48.704-20.096 66.432 66.432 0 0 1-20.096-48.832c0-19.072 6.656-35.328 20.096-48.768a66.56 66.56 0 0 1 48.704-20.096c19.2 0 35.456 6.72 48.896 20.096 13.44 13.44 20.032 29.696 20.032 48.768 0 19.136-6.656 35.392-20.032 48.832-13.44 13.376-29.696 20.096-48.896 20.096z" fill="#d81e06" p-id="14892"></path></svg>