<?xml version="1.0" standalone="no"?><!DOCTYPE svg PUBLIC "-//W3C//DTD SVG 1.1//EN" "http://www.w3.org/Graphics/SVG/1.1/DTD/svg11.dtd"><svg t="1739517556980" class="icon" viewBox="0 0 1024 1024" version="1.1" xmlns="http://www.w3.org/2000/svg" p-id="8179" xmlns:xlink="http://www.w3.org/1999/xlink" width="128" height="128"><path d="M785.728 534.976a21.333333 21.333333 0 0 0 42.538667-3.306667l-4.992-64-6.933334-88.661333q-1.941333-24.96-20.352-41.984Q777.6 320 752.533333 320h-481.066666q-25.066667 0-43.456 17.024-18.410667 17.002667-20.352 41.984l-33.344 426.666667q-2.176 27.904 16.832 48.448 18.986667 20.544 46.976 20.544H512a21.333333 21.333333 0 0 0 0-42.666667H238.122667q-9.322667 0-15.658667-6.848t-5.610667-16.149333l33.344-426.666667q0.64-8.32 6.784-13.994667 6.122667-5.674667 14.485334-5.674666h481.066666q8.362667 0 14.506667 5.674666 6.122667 5.674667 6.762667 13.994667l6.933333 88.661333 4.992 63.978667z" fill="#3bb2f1" p-id="8180"></path><path d="M334.613333 267.861333Q320 303.146667 320 341.333333h42.666667q0-29.696 11.370666-57.152 11.370667-27.434667 32.362667-48.426666 21.013333-21.013333 48.448-32.384Q482.304 192 512 192t57.152 11.370667q27.434667 11.370667 48.426667 32.362666 21.013333 21.013333 32.384 48.448Q661.333333 311.637333 661.333333 341.333333h42.666667q0-38.186667-14.613333-73.472t-41.621334-62.293333q-27.008-27.008-62.293333-41.6Q550.186667 149.333333 512 149.333333t-73.472 14.613334q-35.285333 14.613333-62.293333 41.621333t-41.6 62.293333z" fill="#3bb2f1" p-id="8181"></path><path d="M320 341.333333a21.333333 21.333333 0 1 1 42.666667 0v85.333334a21.333333 21.333333 0 0 1-42.666667 0v-85.333334zM661.333333 341.333333a21.333333 21.333333 0 1 1 42.666667 0v85.333334a21.333333 21.333333 0 0 1-42.666667 0v-85.333334z" fill="#3bb2f1" p-id="8182"></path><path d="M875.52 754.496a170.666667 170.666667 0 1 1-337.258667-52.522667 170.666667 170.666667 0 0 1 337.28 52.522667z m-42.154667-6.549333q8.170667-52.394667-23.104-95.210667t-83.669333-50.986667q-52.373333-8.149333-95.189333 23.125334-42.816 31.274667-50.986667 83.669333-8.149333 52.373333 23.125333 95.189333 31.274667 42.816 83.648 50.986667 52.394667 8.149333 95.210667-23.125333 42.816-31.274667 50.986667-83.648z" fill="#3bb2f1" p-id="8183"></path><path d="M671.210667 661.333333a21.333333 21.333333 0 1 1 42.666666 0v64h64a21.333333 21.333333 0 0 1 0 42.666667h-81.066666q-10.602667 0-18.112-7.488-7.488-7.509333-7.488-18.112V661.333333z" fill="#3bb2f1" p-id="8184"></path></svg>