<?xml version="1.0" standalone="no"?><!DOCTYPE svg PUBLIC "-//W3C//DTD SVG 1.1//EN" "http://www.w3.org/Graphics/SVG/1.1/DTD/svg11.dtd"><svg t="1739519073537" class="icon" viewBox="0 0 1024 1024" version="1.1" xmlns="http://www.w3.org/2000/svg" p-id="13848" xmlns:xlink="http://www.w3.org/1999/xlink" width="128" height="128"><path d="M163.69664 1019.47904c-84.78208 0-159.14496-77.19936-159.14496-165.21216V169.16992C4.55168 78.07488 75.93984 3.95264 163.69664 3.95264h679.04c84.78208 0 159.15008 77.20448 159.15008 165.21728v213.71392h-112.15872V169.16992c0-26.07616-17.5872-53.04832-46.99136-53.04832H163.69664c-21.27872 0-46.98624 23.66464-46.98624 53.04832V854.272c0 26.08128 17.57696 53.05344 46.98624 53.05344H504.7296v112.1536H163.69664z" fill="#e59e78" p-id="13849"></path><path d="M937.66144 759.02976a29.46048 29.46048 0 1 0 0-58.91072H848.2816v-1.19808L957.44 584.87808c11.22816-11.77088 11.03872-30.42816-0.7424-41.64096a29.26592 29.26592 0 0 0-41.40032 0.9216l-0.10752 0.1024-93.53728 98.30912-99.03104-98.83648a29.42976 29.42976 0 0 0-41.61024 0.01536l-0.04096 0.03584c-11.49952 11.52-12.05248 30.17728-0.5376 41.64608l108.91776 109.22496v5.46304h-87.2448a29.4656 29.4656 0 0 0 0 58.91072h87.26528v42.5984h-102.54848a29.46048 29.46048 0 1 0 0 58.91072h102.54848v103.88992a29.44512 29.44512 0 0 0 29.45024 29.45024 29.45024 29.45024 0 0 0 29.46048-29.45024v-103.88992h104.12032c16.2816 0 29.44-13.16864 29.44-29.45024s-13.1584-29.46048-29.44-29.46048H848.2816v-42.5984h89.37984zM627.2 277.29408c0 28.27776-22.92224 51.2-51.2 51.2h-307.2c-28.27776 0-51.2-22.92224-51.2-51.2s22.92224-51.2 51.2-51.2h307.2c28.27776 0 51.2 22.92224 51.2 51.2zM627.2 444.62592c0 28.27776-22.92224 51.2-51.2 51.2h-307.2c-28.27776 0-51.2-22.92224-51.2-51.2 0-28.27264 22.92224-51.2 51.2-51.2h307.2c28.27776 0 51.2 22.92224 51.2 51.2z" fill="#e59e78" p-id="13850"></path></svg>