<?xml version="1.0" standalone="no"?><!DOCTYPE svg PUBLIC "-//W3C//DTD SVG 1.1//EN" "http://www.w3.org/Graphics/SVG/1.1/DTD/svg11.dtd"><svg t="1739857801787" class="icon" viewBox="0 0 1026 1024" version="1.1" xmlns="http://www.w3.org/2000/svg" p-id="6539" xmlns:xlink="http://www.w3.org/1999/xlink" width="128.25" height="128"><path d="M666.214457 577.869571a31.999792 31.999792 0 0 0-6.602624-44.799708A411.570654 411.570654 0 0 0 547.729895 473.998247a257.896988 257.896988 0 0 0 46.655696-36.981092 255.998333 255.998333 0 1 0-362.034976 0 257.907654 257.907654 0 0 0 46.730362 37.023759q-13.439913 4.618637-26.61316 10.1866A413.010644 413.010644 0 0 0 0.000128 865.067701a31.999792 31.999792 0 0 0 63.999583 0 349.363059 349.363059 0 0 1 557.447038-280.595506 31.999792 31.999792 0 0 0 44.767708-6.602624zM221.33202 256.005c0-105.865977 86.132773-191.99875 191.99875-191.99875s191.99875 86.132773 191.99875 191.99875-86.132773 191.99875-191.99875 191.99875-191.99875-86.132773-191.99875-191.99875zM1017.486837 741.559172l-37.951753-76.532835A84.831448 84.831448 0 0 0 903.087582 617.602646H694.299608a84.831448 84.831448 0 0 0-76.447503 47.423691l-37.951753 76.532835a84.884781 84.884781 0 0 0 13.023916 94.996715l142.34574 158.164304a85.332778 85.332778 0 0 0 126.85784 0l142.335074-158.164304a84.884781 84.884781 0 0 0 13.023915-94.996715zM694.299608 681.602229h208.787974a21.205195 21.205195 0 0 1 19.114542 11.861256l31.146464 62.804925h-309.33132l31.146464-62.804925A21.205195 21.205195 0 0 1 694.299608 681.602229z m120.255217 270.30224a21.333194 21.333194 0 0 1-31.711794 0L664.358469 820.267993h268.670251z" p-id="6540" fill="#2ea9fd"></path></svg>