<?xml version="1.0" standalone="no"?><!DOCTYPE svg PUBLIC "-//W3C//DTD SVG 1.1//EN" "http://www.w3.org/Graphics/SVG/1.1/DTD/svg11.dtd"><svg t="1739519208732" class="icon" viewBox="0 0 1024 1024" version="1.1" xmlns="http://www.w3.org/2000/svg" p-id="18279" xmlns:xlink="http://www.w3.org/1999/xlink" width="128" height="128"><path d="M269.7216 495.104l177.3568 102.4-230.4 399.0528-50.0736-118.1184L39.3216 894.1568zM728.6784 495.104l-177.3568 102.4 230.4 399.0528 50.0736-118.1184 127.2832 15.7184z" fill="#F6AA12" p-id="18280"></path><path d="M486.4 358.4m-307.2 0a307.2 307.2 0 1 0 614.4 0 307.2 307.2 0 1 0-614.4 0Z" fill="#FFF3D9" p-id="18281"></path><path d="M486.4 0a358.4 358.4 0 1 1 0 716.8 358.4 358.4 0 0 1 0-716.8z m0 102.4a256 256 0 1 0 0 512 256 256 0 0 0 0-512z" fill="#F6AA12" p-id="18282"></path><path d="M481.6384 450.5088l-82.2272 43.2128a10.24 10.24 0 0 1-14.848-10.752l15.7184-91.5968a10.24 10.24 0 0 0-2.9696-9.0624L330.8544 317.4912a10.24 10.24 0 0 1 5.632-17.408L428.4416 286.6176a10.24 10.24 0 0 0 7.7312-5.632l41.1136-83.2512a10.24 10.24 0 0 1 18.3296 0l41.1136 83.3024a10.24 10.24 0 0 0 7.68 5.632l91.9552 13.312a10.24 10.24 0 0 1 5.632 17.4592l-66.4576 64.8192a10.24 10.24 0 0 0-2.9696 9.0624l15.7184 91.5456a10.24 10.24 0 0 1-14.848 10.8032l-82.2272-43.2128a10.24 10.24 0 0 0-9.5232 0z" fill="#F6AA12" p-id="18283"></path></svg>