<?xml version="1.0" standalone="no"?><!DOCTYPE svg PUBLIC "-//W3C//DTD SVG 1.1//EN" "http://www.w3.org/Graphics/SVG/1.1/DTD/svg11.dtd"><svg t="1739778695465" class="icon" viewBox="0 0 1365 1024" version="1.1" xmlns="http://www.w3.org/2000/svg" p-id="13199" xmlns:xlink="http://www.w3.org/1999/xlink" width="42.65625" height="32"><path d="M1322.74131 375.812597l-0.511963 186.653057-662.565021 10.836543 0.511963-186.653057z" fill="#B9C3D6" p-id="13200"></path><path d="M663.290728 386.478486l-0.511962 186.653056-467.251263 273.644047 0.511962-186.653056z" fill="#AAB4CA" p-id="13201"></path><path d="M0.555053 384.558626l-0.511963 186.653056c-0.255981 99.662066 64.976595 199.494787 195.697731 275.563907l0.511962-186.653056C65.531648 584.053413 0.256408 484.220692 0.555053 384.558626z" fill="#8D99BC" p-id="13202"></path><path d="M1127.683533 113.431729c124.833564 72.784026 189.81016 167.411793 194.887123 262.807504l-660.901143 10.793879-466.099347 273.644047c-259.095774-151.156978-260.24769-396.216443-3.029112-547.330757s676.217359-151.114315 935.142479 0.085327z" fill="#E0E4EF" p-id="13203"></path><path d="M1364.892903 415.617695a237.166707 237.166707 0 0 1 0 24.787525c-5.290281 94.329122-69.328278 187.719645-192.327309 259.650401L702.370546 426.454238z" fill="#1EEFC7" p-id="13204"></path><path d="M1365.234212 428.118116q0 5.972898-0.341309 11.945796-0.213318 4.266356-0.639953 8.532711c0 0.938598 0 1.834533-0.298645 2.773131 0 1.877196-0.383972 3.797056-0.639953 5.674253 0 1.109252-0.341308 2.218505-0.469299 3.327758l-0.767944 5.119626c-0.255981 1.706542-0.426636 2.346496-0.639954 3.541075l-0.895934 4.735655c-0.298645 1.663879-0.767944 3.455748-1.109253 5.16229s-0.59729 2.64514-0.938598 3.967711l-1.407897 5.290281-1.023926 3.83972c-0.341308 1.279907-1.109252 3.669066-1.706542 5.546262l-1.109252 3.541075c-0.682617 2.090514-1.407897 4.266356-2.175842 6.143552l-0.981262 2.815795q-1.706542 4.607664-3.626402 9.130001l-0.895935 2.047851-3.071776 7.039486-1.535888 3.285094a178.760299 178.760299 0 0 1-2.815794 5.75958c-0.59729 1.237243-1.279907 2.431823-1.91986 3.669066l-2.858458 5.332944-2.005188 3.541076q-1.706542 3.071776-3.498411 6.015561l-2.175842 3.541075c-1.237243 2.047851-2.559813 4.053038-3.882383 6.058225l-2.133178 3.285094-4.948972 7.167477-1.407898 2.047851q-3.285094 4.607664-6.826169 9.087337l-1.365233 1.706542q-3.370421 4.266356-6.95416 8.532712l-2.474486 2.901121q-3.669066 4.266356-7.508786 8.532712l-1.450561 1.535888q-4.607664 4.948972-9.385982 9.812617l-2.645141 2.730468q-3.83972 3.797056-7.80743 7.594113l-3.071776 2.815795c-1.066589 0.938598-3.285094 2.986449-4.948973 4.266355l-3.882383 3.498412c-1.706542 1.535888-3.498412 3.071776-5.290281 4.522337l-3.925047 3.327757-5.759581 4.607664-3.797056 3.071776c-2.175841 1.706542-4.266356 3.413084-6.655515 5.119627l-3.285093 2.51715q-5.076963 3.797056-10.281917 7.508785h-0.298645q-5.119627 3.626402-10.367244 7.210141c-1.19458 0.810608-2.431823 1.535888-3.626403 2.389159l-7.423458 4.906309-4.266356 2.815795c-2.303832 1.450561-4.565 2.901122-6.954159 4.266356l-10.19659 6.143552-0.511963 186.653056 9.172665-5.503599 1.023925-0.639953 6.911496-4.266355 4.565-2.858459c2.474486-1.535888 4.948972-3.24243 7.380795-4.863645 1.19458-0.810608 2.474486-1.535888 3.669066-2.431823q5.375608-3.626402 10.580562-7.338131 5.247617-3.711729 10.281917-7.508786l3.327757-2.559813 6.612852-5.076964 3.83972-3.071776 5.75958-4.607664 3.925047-3.327757 5.290281-4.522337 3.925047-3.498412c1.663879-1.535888 3.285094-2.943785 4.906309-4.266355l1.279906-1.19458 1.706543-1.663878q4.010374-3.754393 7.80743-7.55145l2.559814-2.559813q4.820982-4.863645 9.385982-9.812618l1.450561-1.535888q3.83972-4.266356 7.508786-8.532711l2.474486-2.901122q3.583739-4.266356 6.954159-8.532711l1.066589-1.32257 0.298645-0.426636q3.498412-4.522337 6.826169-9.087337l1.407898-2.047851 4.991636-7.167477 2.133177-3.285094 3.882384-6.058225 2.133178-3.541075q1.791869-2.986449 3.498411-6.015561l1.237243-2.175842 0.767944-1.407897q2.431823-4.266356 4.778319-9.00201l2.815794-5.75958c0.511963-1.109252 1.066589-2.175841 1.535888-3.285094l3.071776-7.039487 0.895935-2.047851q1.877196-4.607664 3.626402-9.130001v-0.255981l0.895935-2.559813 2.175841-6.143552 1.109253-3.541075 1.706542-5.546263c0.554626-1.877196 0.682617-2.559813 1.023925-3.83972l1.407898-5.290281c0.469299-1.791869 0.639953-2.64514 0.938598-3.96771l1.151916-5.16229c0-0.511963 0.213318-0.981262 0.341308-1.535888l0.59729-3.242431 0.639953-3.541075 0.810608-5.119627 0.469299-3.327757c0.255981-1.877196 0.426636-3.797056 0.639953-5.674253 0-0.938598 0.213318-1.834533 0.298645-2.773131q0.383972-4.266356 0.639954-8.532711 0-2.901122 0.255981-5.802244t0-6.143552z" fill="#09D1AF" p-id="13205"></path><path d="M1172.608257 699.756976l-0.511962 186.653057-470.280376-273.644047 0.511963-186.653057z" fill="#11C18F" p-id="13206"></path><path d="M1008.097586 967.641443q6.698178-2.389159 13.31103-4.906309l4.266355-1.535888q8.532711-3.24243 16.681451-6.612851l3.327757-1.407898q6.740842-2.773131 13.396356-5.716916l4.820982-2.133178 13.524347-6.143552 2.773132-1.279907q7.935421-3.754393 15.700188-7.722103l4.010374-2.047851q6.015561-3.071776 11.903132-6.271543l4.266356-2.389159c5.076963-2.773131 10.111263-5.631589 15.060235-8.532711l0.511963-186.653056c-4.948972 2.901122-9.983272 5.716916-15.060235 8.532711l-4.266356 2.303832q-5.887571 3.199767-11.860468 6.271542l-4.053038 2.090515q-7.764767 3.925047-15.700189 7.722103l-2.815794 1.279907-13.481684 6.143552-4.820982 2.133178q-6.655515 2.901122-13.396356 5.716916l-3.327758 1.407898q-8.27673 3.370421-16.68145 6.612851l-4.266356 1.535888q-6.612851 2.51715-13.311029 4.863645l-4.991636 1.791869q-8.020748 2.815795-16.126824 5.503599l-1.279907 0.426636q-7.338132 2.389159-14.76159 4.607664l-3.24243 0.981262-11.689815 3.455748-5.460935 1.535888-9.641963 2.687804-6.22888 1.621215-9.00201 2.346495-6.612851 1.706543-8.532711 2.090514-6.868833 1.535888-8.532711 1.91986-7.039486 1.535888-8.532712 1.791869-7.167477 1.407897-8.532711 1.621216-6.228879 1.109252-14.590936 2.474486-4.565001 0.767944q-9.385982 1.535888-18.771964 2.815795l-4.010375 0.554626-15.273553 2.005187-5.716916 0.682617-15.828179 1.749206-3.583739 0.383972q-8.532711 0.853271-17.065422 1.535888l-2.858459 0.213318-14.377618 1.066589-5.930234 0.383972-11.391169 0.682617-6.698179 0.341308-10.708552 0.469299-7.124814 0.255981-9.044674 0.255982h-56.913183c-2.901122 0-5.802244 0-8.532711-0.255982l-7.380796-0.255981-8.831356-0.426635-7.252804-0.341309-8.916683-0.554626-7.167478-0.469299-9.172664-0.682617-6.868833-0.511963-9.556636-0.853271-6.442197-0.59729-10.836543-1.151916-5.076963-0.554626q-7.935421-0.895935-15.870843-1.91986l-2.047851-0.298645-13.780328-1.877196-3.925047-0.59729-12.159114-1.834533-5.930234-0.981262-10.068599-1.663878-6.527524-1.151916-9.343319-1.749206-6.826169-1.32257-8.959347-1.79187-6.356869-1.365234-10.324581-2.261168-6.442197-1.535888-10.111263-2.389159-6.314206-1.535888-10.537898-2.687804-5.674253-1.535888-12.799067-3.583739-3.071776-0.810607q-9.172664-2.64514-18.260002-5.503599l-4.906309-1.535888-14.548272-4.735655-4.010374-1.32257-17.662712-6.228879-3.882384-1.450561q-7.124814-2.64514-14.121637-5.418272l-5.503599-2.175841-5.75958-2.346496-7.338131-3.071776-5.716917-2.431822-7.252804-3.199767L255.981761 755.731561l-7.167477-3.327757-5.460935-2.559813-7.210141-3.541076-5.247617-2.602476-7.466123-3.839721-4.820982-2.474486-8.063412-4.266355-4.010374-2.175842q-5.972898-3.327757-11.817805-6.698178l-0.511962 186.653057q5.844907 3.413084 11.817805 6.698178l4.010374 2.175841c2.687804 1.450561 5.332944 2.901122 8.020748 4.266356l4.863646 2.51715 7.423458 3.797056 5.247618 2.602477 7.210141 3.541075 5.460935 2.559813 7.167477 3.327758 5.631589 2.51715 7.252805 3.199766 5.716916 2.431823 7.338132 3.071776 5.75958 2.346496 2.687804 1.109252 2.773131 1.066589q7.039487 2.773131 14.164301 5.418271l3.882383 1.450561q8.746029 3.199767 17.662712 6.271543l4.010375 1.32257q7.252804 2.431823 14.590936 4.778319l4.863645 1.535888q9.087337 2.815795 18.345329 5.503598h0.298645l2.687804 0.767944 12.799067 3.583739 5.674253 1.535888 10.537898 2.687804 6.314206 1.535888 10.111263 2.389159 6.48486 1.535888 10.324581 2.261169 4.266355 0.895934 2.261169 0.426636 8.959347 1.791869 6.826169 1.32257 9.343318 1.706543 6.570188 1.194579 10.068599 1.663879 5.887571 0.981262 12.372431 1.877196 3.455748 0.511963h0.255981l14.6336 1.962523h1.194579q7.935421 1.023925 15.913507 1.91986l4.692991 0.511963 11.220515 1.19458 6.100889 0.554626 9.812617 0.895934h0.59729l6.100889 0.4693 9.343318 0.72528 7.039487 0.426636 9.087337 0.554626 7.210141 0.341308 8.916684 0.426636 7.338131 0.255981 8.788693 0.255981H690.467413l9.172665-0.255981h7.08215l10.708553-0.469299 6.698178-0.341308 11.348506-0.682617 5.972898-0.383972 14.334954-1.066589 2.901122-0.213318 17.065422-1.535888h0.853272l2.730467-0.298645 15.828179-1.749206 5.716917-0.682617 15.273553-2.005187 4.010374-0.554626q9.428646-1.32257 18.814628-2.815795l4.565001-0.767944 14.590936-2.517149 3.071776-0.511963 3.071776-0.59729 8.532711-1.621215 7.167477-1.407897 8.532711-1.79187 6.996824-1.535888 8.532711-1.962523 6.783505-1.535888 8.746029-2.090514 6.612851-1.621216 9.00201-2.346495 6.186216-1.621215 9.641964-2.687804 5.418271-1.535888 11.775142-3.498412 3.157103-0.938598 14.804254-4.607664h0.213317l1.023926-0.341309q8.148739-2.687804 16.169487-5.503598z" fill="#F7706C" p-id="13207"></path><path d="M1131.693907 724.501838c-258.029185 151.114315-677.753247 151.114315-937.488974 0l467.165935-273.644046z" fill="#F68D8D" p-id="13208"></path></svg>