<?xml version="1.0" standalone="no"?><!DOCTYPE svg PUBLIC "-//W3C//DTD SVG 1.1//EN" "http://www.w3.org/Graphics/SVG/1.1/DTD/svg11.dtd"><svg t="1739517346202" class="icon" viewBox="0 0 1024 1024" version="1.1" xmlns="http://www.w3.org/2000/svg" p-id="4245" data-spm-anchor-id="a313x.search_index.0.i6.62cd3a81i7V5s5" xmlns:xlink="http://www.w3.org/1999/xlink" width="128" height="128"><path d="M264.778647 614.080997c-23.925234 0-44.660436 28.71028-44.660436 62.205607v68.58567c0 35.090343 19.140187 62.205607 44.660436 62.205608s44.660436-28.71028 44.660436-62.205608v-68.58567c0-35.090343-20.735202-62.205607-44.660436-62.205607zM526.361201 756.037383V512a49.445483 49.445483 0 0 0-44.660436-51.040498 47.850467 47.850467 0 0 0-44.660436 51.040498v244.037383a49.445483 49.445483 0 0 0 44.660436 51.040499 47.850467 47.850467 0 0 0 44.660436-51.040499zM43.071482 216.922118h86.130841V303.05296a38.280374 38.280374 0 0 0 36.685358 36.685358 38.280374 38.280374 0 0 0 36.685358-36.685358v-86.130842h86.130841a38.280374 38.280374 0 0 0 36.685359-36.685358A38.280374 38.280374 0 0 0 288.70388 143.551402h-86.130841V57.420561a38.280374 38.280374 0 0 0-36.685358-36.685359 38.280374 38.280374 0 0 0-36.685358 36.685359V143.551402H43.071482a38.280374 38.280374 0 0 0-36.685359 36.685358 38.280374 38.280374 0 0 0 36.685359 36.685358z m714.566978 527.950156V307.838006c0-35.090343-19.140187-62.205607-44.660436-62.205607s-44.660436 28.71028-44.660436 62.205607v437.034268c0 35.090343 19.140187 62.205607 44.660436 62.205608s44.660436-28.71028 44.660436-62.205608zM705.002946 0H532.741264A40.672897 40.672897 0 0 0 494.46089 41.470405a41.789408 41.789408 0 0 0 38.280374 41.470405h346.11838a66.033645 66.033645 0 0 1 65.395638 66.990654v725.732087a65.076636 65.076636 0 0 1-65.395638 66.990655H141.962447a66.033645 66.033645 0 0 1-65.395638-66.990655V516.785047a41.789408 41.789408 0 0 0-38.280374-41.470405A41.789408 41.789408 0 0 0 0.006061 516.785047v358.878504a147.060436 147.060436 0 0 0 143.551402 148.336449h736.897196a147.060436 147.060436 0 0 0 143.551402-148.336449V148.336449a147.060436 147.060436 0 0 0-143.551402-148.336449z" fill="#f1ec7d" p-id="4246"></path></svg>