<?xml version="1.0" standalone="no"?><!DOCTYPE svg PUBLIC "-//W3C//DTD SVG 1.1//EN" "http://www.w3.org/Graphics/SVG/1.1/DTD/svg11.dtd"><svg t="1740034113030" class="icon" viewBox="0 0 1024 1024" version="1.1" xmlns="http://www.w3.org/2000/svg" p-id="42983" xmlns:xlink="http://www.w3.org/1999/xlink" width="128" height="128"><path d="M387.512157 383.962504c15.698467 0 28.497217 11.798848 28.497217 26.397422 0 17.698272 14.298604 31.996875 31.996875 31.996875s31.996875-14.298604 31.996875-31.996875c0-49.795137-41.495948-90.391173-92.490968-90.391173l-68.793282 0 0-31.996875c0-17.698272-14.298604-31.996875-31.996875-31.996875s-31.996875 14.298604-31.996875 31.996875l0 31.996875-66.293526 0c-50.99502 0-92.490968 40.596036-92.490968 90.391173l0 8.69915c0 49.795137 41.495948 90.391173 92.490968 90.391173l66.293526 0L254.725124 577.94356l-66.293526 0c-15.698467 0-28.497217-11.798848-28.497217-26.397422 0-17.698272-14.298604-31.996875-31.996875-31.996875s-31.996875 14.298604-31.996875 31.996875c0 49.795137 41.495948 90.391173 92.490968 90.391173l66.293526 0 0 29.997071c0 17.698272 14.298604 31.996875 31.996875 31.996875s31.996875-14.298604 31.996875-31.996875l0-29.997071 68.793282 0c50.99502 0 92.490968-40.596036 92.490968-90.391173L480.003125 535.947661c0-49.795137-41.495948-90.391173-92.490968-90.391173l-68.793282 0L318.718875 383.962504 387.512157 383.962504zM387.512157 509.550239c15.698467 0 28.497217 11.798848 28.497217 26.397422l0 15.598477c0 14.598574-12.79875 26.397422-28.497217 26.397422l-68.793282 0 0-68.393321L387.512157 509.550239zM254.825115 445.556489l-66.293526 0c-15.698467 0-28.497217-11.798848-28.497217-26.397422l0-8.69915c0-14.598574 12.79875-26.397422 28.497217-26.397422l66.293526 0L254.825115 445.556489z" p-id="42984" fill="#3392de"></path><path d="M288.021873 159.984377m-31.996875 0a32 32 0 1 0 63.993751 0 32 32 0 1 0-63.993751 0Z" p-id="42985" fill="#3392de"></path><path d="M1007.351626 696.93194l-49.995118 0c-4.599551-16.498389-11.098916-32.196856-19.298115-46.79543l35.296553-35.296553c6.499365-6.499365 6.499365-16.99834 0-23.497705l-56.994434-56.994434c-3.199688-3.199688-7.499268-4.799531-11.698858-4.799531-4.29958 0-8.49917 1.599844-11.698858 4.799531l-35.296553 35.296553c-14.598574-8.199199-30.297041-14.698565-46.79543-19.298115l0-49.995118c0-9.099111-7.499268-16.598379-16.598379-16.598379l-80.59213 0c-9.099111 0-16.598379 7.499268-16.598379 16.598379l0 49.995118c-16.498389 4.599551-32.196856 11.098916-46.79543 19.298115L614.989942 534.447808c-3.199688-3.199688-7.499268-4.799531-11.698858-4.799531s-8.49917 1.599844-11.698858 4.799531l-56.994434 56.994434c-6.399375 6.499365-6.399375 16.99834 0 23.497705l35.296553 35.296553c-8.199199 14.598574-14.698565 30.297041-19.298115 46.79543l-49.995118 0c-9.099111 0-16.598379 7.499268-16.598379 16.598379l0 80.59213c0 9.099111 7.499268 16.598379 16.598379 16.598379l49.995118 0c4.599551 16.498389 11.098916 32.196856 19.298115 46.79543l-35.296553 35.296553c-6.399375 6.499365-6.399375 16.99834 0 23.497705l56.994434 56.994434c3.199688 3.199688 7.499268 4.799531 11.698858 4.799531s8.49917-1.599844 11.698858-4.799531l35.296553-35.296553c14.598574 8.199199 30.297041 14.698565 46.79543 19.298115l0 49.995118c0 9.099111 7.499268 16.598379 16.598379 16.598379l80.59213 0c9.099111 0 16.598379-7.499268 16.598379-16.598379l0-49.995118c16.498389-4.599551 32.196856-11.098916 46.79543-19.298115l35.296553 35.296553c3.199688 3.199688 7.499268 4.799531 11.698858 4.799531 4.29958 0 8.49917-1.599844 11.698858-4.799531l56.994434-56.994434c6.499365-6.499365 6.499365-16.99834 0-23.497705l-35.296553-35.296553c8.199199-14.598574 14.698565-30.297041 19.298115-46.79543l49.995118 0c9.099111 0 16.598379-7.499268 16.598379-16.598379l0-80.59213C1023.950005 704.431208 1016.450737 696.93194 1007.351626 696.93194zM895.762523 793.522508c-3.199688 11.498877-7.699248 22.497803-13.398692 32.596817l-20.298018 35.896494-35.896494 20.298018c-10.099014 5.699443-20.997949 10.199004-32.596817 13.398692l-39.696123 11.098916-39.696123-11.098916c-11.498877-3.199688-22.497803-7.699248-32.596817-13.398692l-35.896494-20.298018-20.298018-35.896494c-5.699443-10.099014-10.199004-20.997949-13.398692-32.596817L600.991309 753.826384l11.098916-39.696123c3.199688-11.498877 7.699248-22.497803 13.398692-32.596817l20.298018-35.896494 35.896494-20.298018c10.099014-5.699443 20.997949-10.199004 32.596817-13.398692l39.696123-11.098916 39.696123 11.098916c11.498877 3.199688 22.497803 7.699248 32.596817 13.398692l35.896494 20.298018 20.298018 35.896494c5.699443 10.099014 10.199004 20.997949 13.398692 32.596817l11.098916 39.696123L895.762523 793.522508z" p-id="42986" fill="#3392de"></path><path d="M753.876379 652.636266c-55.894542 0-101.290108 45.295577-101.290108 101.290108 0 55.894542 45.295577 101.290108 101.290108 101.290108 55.894542 0 101.290108-45.295577 101.290108-101.290108C855.166488 697.931843 809.870911 652.636266 753.876379 652.636266zM753.876379 791.122742c-20.597988 0-37.296358-16.698369-37.296358-37.296358s16.698369-37.296358 37.296358-37.296358 37.296358 16.698369 37.296358 37.296358S774.474368 791.122742 753.876379 791.122742z" p-id="42987" fill="#3392de"></path><path d="M411.009862 799.721902C411.009862 799.721902 411.009862 799.721902 411.009862 799.721902L127.737526 799.921883c0 0 0 0 0 0-16.99834 0-32.996778-6.599356-44.995606-18.598184-11.998828-11.998828-18.598184-27.997266-18.598184-44.995606l0-442.856752c0-16.99834 6.599356-32.996778 18.598184-44.995606L248.52573 82.591934c24.797578-24.797578 65.193633-24.797578 89.991212 0l166.183771 166.183771c11.998828 11.998828 18.598184 27.997266 18.598184 44.995606l0 155.184845c0 17.698272 14.298604 31.996875 31.996875 31.996875 17.698272 0 31.996875-14.298604 31.996875-31.996875l0-155.184845c0-34.09667-13.298701-66.093546-37.396348-90.191192L383.712528 37.396348C334.017381-12.398789 253.02529-12.398789 203.330144 37.396348L37.446343 203.180158C13.348696 227.277805 0.049995 259.37467 0.049995 293.471341l0 442.856752c0 34.09667 13.298701 66.193536 37.396348 90.291183 24.097647 24.097647 56.094522 37.296358 90.191192 37.296358 0 0 0.09999 0 0.09999 0l283.272337-0.19998c17.698272 0 31.996875-14.398594 31.996875-31.996875C443.006738 814.020506 428.708134 799.721902 411.009862 799.721902z" p-id="42988" fill="#3392de"></path></svg>