<?xml version="1.0" standalone="no"?><!DOCTYPE svg PUBLIC "-//W3C//DTD SVG 1.1//EN" "http://www.w3.org/Graphics/SVG/1.1/DTD/svg11.dtd"><svg t="1739861371824" class="icon" viewBox="0 0 1024 1024" version="1.1" xmlns="http://www.w3.org/2000/svg" p-id="7635" xmlns:xlink="http://www.w3.org/1999/xlink" width="128" height="128"><path d="M816.682266 848.24516c-56.801045 32.110227-122.481055 21.041929-153.374985 12.892743l-5.959853 14.838817-0.608148 0.973037c-7.662668 13.74415-18.001188 18.001188-25.298967 19.217484-1.824445 0.243259-3.52726 0.364889-5.230075 0.364889-14.109039 0-24.690818-9.000594-26.880152-11.068298l-2.067704-1.824445-60.814824-103.26357c-7.297779-13.62252-5.351704-24.569189-2.554223-31.380449 6.568001-15.690224 22.744744-21.285188 25.907115-22.136596l0.608148-0.12163 103.871719-27.60993 0.608148-0.12163c19.095855-3.52726 33.083264-0.12163 41.840599 10.21689 9.243853 10.946668 8.392446 26.150374 4.743556 35.880746l-0.243259 0.608148-4.621927 11.068298c50.719563 14.838817 92.92505 10.581779 125.643426-12.771113 5.959853-4.257038 11.068298-8.878964 15.568595-13.379261-3.284-3.770519-6.93289-7.176149-10.946668-10.21689-12.162965-9.000594-26.028745-16.541632-41.718969-22.623114-14.717187-5.594964-29.677634-10.581779-45.002969-15.082076-9.973631 0-18.122817-2.432593-24.325929-7.419408-8.757335-2.919112-17.14978-5.959853-25.055707-9.243853-15.690224-6.446371-27.974819-13.62252-36.732153-21.771707-8.757335-8.149186-15.082076-16.663262-19.339114-25.663856-0.729778-1.459556-1.337926-2.919112-1.824445-4.378667-17.028151 2.675852-32.596745 8.757335-46.584155 18.122817-26.880152 18.244447-38.07008 42.935265-38.191709 43.178525l-34.54282-11.189928c14.717187-66.044898 45.489488-111.777646 91.465495-135.981946 19.460744-10.21689 41.840599-16.420002 65.923269-18.366077 3.648889-3.892149 7.05452-8.757335 10.095261-14.838817 3.648889-7.297779 6.93289-14.717187 9.730372-22.136596 2.797482-8.757335 5.716593-18.001188 8.514075-27.853189 5.594964-1.824445 10.946668-4.986816 15.933484-9.608742 4.500297-4.135408 8.635705-9.852001 12.284594-16.906521 3.648889-7.297779 6.081482-17.028151 7.176149-29.191115 1.216296-9.365483 0.973037-17.028151-0.364889-23.474522-1.459556-6.446371-3.284-11.676446-5.473334-15.811854-2.310963-4.621927-5.473334-8.392446-9.365483-11.311557 0-23.717781-1.459556-47.192303-4.257038-70.423566-2.797482-20.312151-7.662668-41.597339-14.230669-63.977194-6.81126-22.379855-17.39304-42.692006-32.110227-61.422972-6.203112-8.149186-14.717187-16.176743-25.663856-24.325929-11.068298-8.149186-23.474522-15.325336-37.583561-21.771707-14.109039-6.324742-29.191115-11.433187-45.124599-15.082076-15.933484-3.770519-32.231857-5.716593-48.4086-5.716593-12.892743 0-26.272004 0.973037-40.137784 3.040741-13.86578 2.067704-27.60993 5.959853-41.35408 11.798076-13.74415 5.838223-27.245041 13.86578-40.502673 23.961041-13.257632 10.21689-25.055707 23.352892-35.880746 39.651265-11.798076 16.784891-20.55541 36.002376-26.515263 57.409193-5.959853 21.406818-9.973631 41.35408-12.284594 60.085046-2.797482 22.014966-3.892149 44.029932-3.40563 66.166528-5.108445 5.838223-8.757335 11.919705-10.946668 18.244447-2.310963 5.838223-3.892149 12.771113-4.743556 20.79867-0.851408 8.149186 0.486519 17.14978 3.892149 27.001782 2.797482 9.852001 6.203112 17.39304 10.095261 22.623114 4.013778 5.230075 7.662668 9.243853 11.068298 12.162965 3.892149 2.919112 7.905927 4.986816 11.798076 6.203112 2.919112 9.852001 5.716593 19.095855 8.514075 27.853189 2.797482 7.541038 5.959853 14.838817 9.365483 22.136596 3.284 7.297779 7.297779 12.892743 11.798076 16.906521 9.608742 8.149186 18.244447 16.055113 26.150374 23.961041 7.905927 7.784297 12.406224 18.366077 13.500891 31.745338 0.608148 9.365483 0.851408 17.636299 0.851408 25.177337 0 7.662668-1.337926 14.717187-4.257038 21.771707-2.797482 6.93289-7.297779 13.987409-13.500891 20.79867-6.203112 7.05452-15.082076 14.230669-27.001782 21.771707-15.082076 9.852001-32.596745 17.39304-52.300748 22.623114-19.582373 5.230075-38.678228 11.189928-56.922675 17.757928-18.244447 6.689631-34.299561 15.568595-48.043711 27.001782-13.62252 11.311557-22.014966 27.73156-24.812448 49.138377-5.594964 37.705191-6.93289 68.477491-3.770519 92.316902 3.040741 23.717781 7.419408 37.94845 13.014372 42.692006 3.40563 2.919112 11.676446 5.838223 24.447559 8.757335 12.892743 2.797482 28.704597 5.716593 47.192303 8.635705 18.609336 2.919112 39.286376 5.716593 62.03112 8.392446 22.744744 2.554223 45.732747 4.865186 68.720751 6.93289 22.988003 2.067704 45.367858 3.648889 67.139565 4.865186 21.528448 1.094667 40.624302 1.702815 56.922675 1.702815 16.176743 0 35.515857-0.608148 57.774082-1.702815 22.136596-1.216296 45.367858-2.797482 69.450529-4.865186 24.2043-2.067704 48.16534-4.500297 72.126381-7.419408 23.839411-2.919112 45.489488-6.203112 64.950232-10.095261 19.339114-3.770519 35.759116-7.662668 48.895118-11.798076 13.257632-4.013778 21.163559-8.149186 23.961041-12.162965 4.013778-6.446371 6.93289-15.690224 9.000594-27.853189 1.946074-12.284594 2.919112-25.298967 2.919112-39.286376 0-11.433187-0.486519-22.744744-1.459556-34.056301C855.360494 819.905452 837.724195 836.325454 816.682266 848.24516z" p-id="7636" fill="#55c85a"></path><path d="M886.376054 707.762917c0 0-47.800451 118.588906-203.972918 61.179713l12.041335-29.191115c0 0 10.703409-28.704597-26.150374-21.771707l-103.141941 27.366671c0 0-23.474522 7.05452-12.527854 27.60993l59.112009 100.222829c0 0 17.879558 16.420002 29.191115-4.013778l11.798076-29.312745C652.725502 839.852714 845.995011 913.317021 886.376054 707.762917L886.376054 707.762917z" p-id="7637" fill="#55c85a"></path><path d="M541.191115 669.327949c0 0 50.719563-117.37261 205.432474-56.071267L733.852477 642.204537c0 0-11.311557 28.461337 25.542226 22.501485l103.871719-24.812448c0 0 23.596152-6.446371 13.136002-27.245041l-56.557786-101.682385c0 0-17.514669-16.906521-29.312745 3.162371l-12.527854 29.069486C778.004038 543.198005 586.680603 464.868512 541.191115 669.327949L541.191115 669.327949z" p-id="7638" fill="#55c85a"></path></svg>